<svg id="AMBULANCE" xmlns="http://www.w3.org/2000/svg" width="144.022" height="113.923" viewBox="0 0 144.022 113.923">
  <g id="Grupo_112" data-name="Grupo 112" transform="translate(6.461 15.201)">
    <g id="Grupo_111" data-name="Grupo 111">
      <path id="Trazado_129" data-name="Trazado 129" d="M159.792,102.142l-30.5-30.5a12.056,12.056,0,0,0-8.524-3.531H37a3.014,3.014,0,0,0-3.014,3.014v67.3h131.1V114.929A18.085,18.085,0,0,0,159.792,102.142Z" transform="translate(-33.99 -68.109)" fill="#e8e6f5"/>
    </g>
  </g>
  <g id="Grupo_114" data-name="Grupo 114" transform="translate(2.092 85.512)">
    <g id="Grupo_113" data-name="Grupo 113">
      <path id="Trazado_130" data-name="Trazado 130" d="M164.939,168.948H30.345a2.625,2.625,0,0,0-2.622,2.628v7.516a2.624,2.624,0,0,0,2.622,2.622H164.939a2.624,2.624,0,0,0,2.622-2.622v-7.516A2.624,2.624,0,0,0,164.939,168.948Z" transform="translate(-27.723 -168.948)" fill="#e8e6f5"/>
    </g>
  </g>
  <g id="Grupo_116" data-name="Grupo 116" transform="translate(6.461 85.512)">
    <g id="Grupo_115" data-name="Grupo 115">
      <path id="Trazado_131" data-name="Trazado 131" d="M166.836,168.948H33.99v5.623a2.624,2.624,0,0,0,2.622,2.622H169.458v-5.618A2.624,2.624,0,0,0,166.836,168.948Z" transform="translate(-33.99 -168.948)" fill="#8d386d"/>
    </g>
  </g>
  <g id="Grupo_118" data-name="Grupo 118" transform="translate(19.493 76.869)">
    <g id="Grupo_117" data-name="Grupo 117">
      <path id="Trazado_132" data-name="Trazado 132" d="M70.159,156.552a17.476,17.476,0,1,0,17.48,17.48A17.37,17.37,0,0,0,70.159,156.552Z" transform="translate(-52.679 -156.552)" fill="#e8e6f5"/>
    </g>
  </g>
  <g id="Grupo_120" data-name="Grupo 120" transform="translate(24.007 76.869)">
    <g id="Grupo_119" data-name="Grupo 119">
      <path id="Trazado_133" data-name="Trazado 133" d="M72.12,156.552a17.37,17.37,0,0,0-10.163,3.267,17.479,17.479,0,0,0,24.821,23.73,17.476,17.476,0,0,0-14.658-27Z" transform="translate(-59.154 -156.552)" fill="#8479b9"/>
    </g>
  </g>
  <g id="Grupo_122" data-name="Grupo 122" transform="translate(28.384 85.759)">
    <g id="Grupo_121" data-name="Grupo 121">
      <path id="Trazado_134" data-name="Trazado 134" d="M74.02,169.3a8.6,8.6,0,1,0,8.6,8.589A8.586,8.586,0,0,0,74.02,169.3Z" transform="translate(-65.431 -169.302)" fill="#e8e6f5"/>
    </g>
  </g>
  <g id="Grupo_124" data-name="Grupo 124" transform="translate(32.899 85.759)">
    <g id="Grupo_123" data-name="Grupo 123">
      <path id="Trazado_135" data-name="Trazado 135" d="M75.98,169.3a8.586,8.586,0,0,0-3.454.723,8.469,8.469,0,0,0-.621,3.207,8.591,8.591,0,0,0,12.055,7.86A8.6,8.6,0,0,0,75.98,169.3Z" transform="translate(-71.906 -169.302)" fill="#8d386d"/>
    </g>
  </g>
  <g id="Grupo_126" data-name="Grupo 126" transform="translate(85.042 76.869)">
    <g id="Grupo_125" data-name="Grupo 125">
      <path id="Trazado_136" data-name="Trazado 136" d="M164.169,156.552a17.476,17.476,0,1,0,17.48,17.48A17.37,17.37,0,0,0,164.169,156.552Z" transform="translate(-146.689 -156.552)" fill="#e8e6f5"/>
    </g>
  </g>
  <g id="Grupo_128" data-name="Grupo 128" transform="translate(89.557 76.869)">
    <g id="Grupo_127" data-name="Grupo 127">
      <path id="Trazado_137" data-name="Trazado 137" d="M166.13,156.552a17.37,17.37,0,0,0-10.163,3.267,17.479,17.479,0,0,0,24.821,23.73,17.476,17.476,0,0,0-14.658-27Z" transform="translate(-153.164 -156.552)" fill="#8479b9"/>
    </g>
  </g>
  <g id="Grupo_130" data-name="Grupo 130" transform="translate(93.933 85.759)">
    <g id="Grupo_129" data-name="Grupo 129">
      <path id="Trazado_138" data-name="Trazado 138" d="M168.03,169.3a8.6,8.6,0,1,0,8.6,8.589A8.586,8.586,0,0,0,168.03,169.3Z" transform="translate(-159.441 -169.302)" fill="#e8e6f5"/>
    </g>
  </g>
  <g id="Grupo_132" data-name="Grupo 132" transform="translate(98.448 85.759)">
    <g id="Grupo_131" data-name="Grupo 131">
      <path id="Trazado_139" data-name="Trazado 139" d="M169.99,169.3a8.586,8.586,0,0,0-3.454.723,8.469,8.469,0,0,0-.621,3.207,8.591,8.591,0,0,0,12.056,7.86,8.6,8.6,0,0,0-7.982-11.79Z" transform="translate(-165.916 -169.302)" fill="#8d386d"/>
    </g>
  </g>
  <g id="Grupo_134" data-name="Grupo 134" transform="translate(85.121 23.941)">
    <g id="Grupo_133" data-name="Grupo 133">
      <path id="Trazado_140" data-name="Trazado 140" d="M183.3,108.4,156.778,81.88a4.219,4.219,0,0,0-2.984-1.236H146.8v26.37a4.219,4.219,0,0,0,4.219,4.219H184.54A4.133,4.133,0,0,0,183.3,108.4Z" transform="translate(-146.802 -80.644)" fill="#94d3cc"/>
    </g>
  </g>
  <g id="Grupo_136" data-name="Grupo 136" transform="translate(26.262 23.94)">
    <g id="Grupo_135" data-name="Grupo 135">
      <path id="Trazado_141" data-name="Trazado 141" d="M91.031,91.566H83.725a1.805,1.805,0,0,1-1.808-1.808V82.452a1.806,1.806,0,0,0-1.808-1.809H70.615a1.806,1.806,0,0,0-1.808,1.809v7.305A1.805,1.805,0,0,1,67,91.565H62.388V98.5A1.809,1.809,0,0,0,64.2,100.3h7.311a1.81,1.81,0,0,1,1.808,1.809v7.311a1.805,1.805,0,0,0,1.808,1.808h6.793v-4.743a1.805,1.805,0,0,1,1.808-1.808h7.305a1.81,1.81,0,0,0,1.808-1.809v-9.5A1.807,1.807,0,0,0,91.031,91.566Z" transform="translate(-62.388 -80.643)" fill="#eb6b69"/>
    </g>
  </g>
  <g id="Grupo_138" data-name="Grupo 138" transform="translate(76.381 2.091)">
    <g id="Grupo_137" data-name="Grupo 137">
      <path id="Trazado_142" data-name="Trazado 142" d="M149.185,51.869a8.738,8.738,0,0,0-14.918,6.178v4.37h17.48v-4.37A8.683,8.683,0,0,0,149.185,51.869Z" transform="translate(-134.267 -49.307)" fill="#e8e6f5"/>
    </g>
  </g>
  <g id="Grupo_140" data-name="Grupo 140" transform="translate(80.816 2.091)">
    <g id="Grupo_139" data-name="Grupo 139">
      <path id="Trazado_143" data-name="Trazado 143" d="M151.111,51.869a8.732,8.732,0,0,0-9.686-1.826,8.636,8.636,0,0,0-.8,3.635v4.37h13.044A8.683,8.683,0,0,0,151.111,51.869Z" transform="translate(-140.629 -49.307)" fill="#eb6b69"/>
    </g>
  </g>
  <g id="Grupo_142" data-name="Grupo 142" transform="translate(124.45 72.01)">
    <g id="Grupo_141" data-name="Grupo 141">
      <path id="Trazado_144" data-name="Trazado 144" d="M205.016,149.584a1.805,1.805,0,0,0-1.808,1.808v9.8A1.809,1.809,0,0,0,205.016,163h11.3V149.584h-11.3Z" transform="translate(-203.208 -149.584)" fill="#e8e6f5"/>
    </g>
  </g>
  <g id="Grupo_144" data-name="Grupo 144" transform="translate(128.82 72.01)">
    <g id="Grupo_143" data-name="Grupo 143">
      <path id="Trazado_145" data-name="Trazado 145" d="M209.475,149.584v7.233a1.809,1.809,0,0,0,1.808,1.808h6.931v-9.041Z" transform="translate(-209.475 -149.584)" fill="#eb6b69"/>
    </g>
  </g>
  <g id="Grupo_146" data-name="Grupo 146">
    <g id="Grupo_145" data-name="Grupo 145">
      <path id="Trazado_146" data-name="Trazado 146" d="M164.374,129.749v-21.42a20.041,20.041,0,0,0-5.909-14.265l-30.5-30.5a14.045,14.045,0,0,0-7.288-3.882V57.14a10.832,10.832,0,1,0-21.663,0v2.278H34.2a5.112,5.112,0,0,0-5.106,5.105V129.75a4.719,4.719,0,0,0-4.37,4.7v7.516a4.722,4.722,0,0,0,4.716,4.716H43.078a19.568,19.568,0,0,0,37.239,0h28.452a19.565,19.565,0,0,0,37.109,0h18.151a4.722,4.722,0,0,0,4.716-4.716v-7.516A4.72,4.72,0,0,0,164.374,129.749ZM103.2,57.139a6.648,6.648,0,1,1,13.3,0v2.278H103.2Zm-61.069,83.52c0,.62.032,1.233.089,1.838H29.439a.534.534,0,0,1-.533-.533v-7.516a.534.534,0,0,1,.533-.533H43.324A19.471,19.471,0,0,0,42.126,140.659ZM61.7,156.046a15.387,15.387,0,1,1,15.388-15.387A15.4,15.4,0,0,1,61.7,156.046Zm46.055-15.58a19.72,19.72,0,0,0,.105,2.03H81.18c.056-.605.089-1.218.089-1.838a19.477,19.477,0,0,0-1.2-6.744h28.813A19.475,19.475,0,0,0,107.752,140.467Zm19.571,15.388a15.388,15.388,0,1,1,15.388-15.388A15.4,15.4,0,0,1,127.323,155.854Zm0-34.959a19.567,19.567,0,0,0-16.352,8.836H77.927a19.558,19.558,0,0,0-32.459,0H33.276V116.04H66.144v-4.184H33.276V64.522A.923.923,0,0,1,34.2,63.6H117.96A9.9,9.9,0,0,1,125,66.519l30.5,30.5a15.889,15.889,0,0,1,4.683,11.307v7.9h-9.209a3.9,3.9,0,0,0-3.9,3.9v9.6h-3.405A19.564,19.564,0,0,0,127.323,120.9Zm32.867-.485v9.225h-8.926V120.41Zm4.37,21.554a.534.534,0,0,1-.533.533H146.789a19.722,19.722,0,0,0,.105-2.03,19.467,19.467,0,0,0-1.132-6.551h18.265a.534.534,0,0,1,.533.533Z" transform="translate(-24.723 -46.308)" fill="#44294f"/>
    </g>
  </g>
  <g id="Grupo_148" data-name="Grupo 148" transform="translate(26.29 83.666)">
    <g id="Grupo_147" data-name="Grupo 147">
      <path id="Trazado_147" data-name="Trazado 147" d="M73.112,166.3A10.684,10.684,0,1,0,83.8,176.985,10.7,10.7,0,0,0,73.112,166.3Zm0,17.185a6.5,6.5,0,1,1,6.5-6.5A6.508,6.508,0,0,1,73.112,183.486Z" transform="translate(-62.428 -166.301)" fill="#44294f"/>
    </g>
  </g>
  <g id="Grupo_150" data-name="Grupo 150" transform="translate(91.917 83.666)">
    <g id="Grupo_149" data-name="Grupo 149">
      <path id="Trazado_148" data-name="Trazado 148" d="M167.232,166.3a10.684,10.684,0,1,0,10.684,10.684A10.7,10.7,0,0,0,167.232,166.3Zm0,17.185a6.5,6.5,0,1,1,6.5-6.5A6.507,6.507,0,0,1,167.232,183.486Z" transform="translate(-156.549 -166.301)" fill="#44294f"/>
    </g>
  </g>
  <g id="Grupo_152" data-name="Grupo 152" transform="translate(78.659 21.849)">
    <g id="Grupo_151" data-name="Grupo 151">
      <path id="Trazado_149" data-name="Trazado 149" d="M181.972,106.013,155.451,79.492a6.267,6.267,0,0,0-4.462-1.848h-7.143a6.319,6.319,0,0,0-6.311,6.311v26.521a6.309,6.309,0,0,0,6.308,6.31h33.666a6.311,6.311,0,0,0,4.463-10.773Zm-2.5,5.276a2.088,2.088,0,0,1-1.966,1.314H143.844a2.127,2.127,0,0,1-2.126-2.127v-2.231h15.388v-4.184H141.719V83.955a2.129,2.129,0,0,1,2.127-2.127h7.143a2.112,2.112,0,0,1,1.5.623l26.521,26.52A2.087,2.087,0,0,1,179.475,111.29Z" transform="translate(-137.535 -77.644)" fill="#44294f"/>
    </g>
  </g>
  <g id="Grupo_154" data-name="Grupo 154" transform="translate(19.665 21.849)">
    <g id="Grupo_153" data-name="Grupo 153">
      <path id="Trazado_150" data-name="Trazado 150" d="M88.169,88.569H81.144V81.544a3.9,3.9,0,0,0-3.9-3.9H67.75a3.9,3.9,0,0,0-3.9,3.9v7.025H56.826a3.9,3.9,0,0,0-3.9,3.9v9.493a3.9,3.9,0,0,0,3.9,3.9h7.025v7.025a3.9,3.9,0,0,0,3.9,3.9h9.493a3.905,3.905,0,0,0,3.9-3.9v-7.025h7.025a3.9,3.9,0,0,0,3.9-3.9V92.469A3.9,3.9,0,0,0,88.169,88.569Zm-.284,13.11H80.861a3.905,3.905,0,0,0-3.9,3.9V112.6H68.034v-7.025a3.905,3.905,0,0,0-3.9-3.9H57.11V92.752h7.024a3.905,3.905,0,0,0,3.9-3.9V81.828h8.926v7.024a3.905,3.905,0,0,0,3.9,3.9h7.024Z" transform="translate(-52.926 -77.644)" fill="#44294f"/>
    </g>
  </g>
  <g id="Grupo_156" data-name="Grupo 156" transform="translate(45.791 65.549)">
    <g id="Grupo_155" data-name="Grupo 155">
      <rect id="Rectángulo_19" data-name="Rectángulo 19" width="8.739" height="4.184" fill="#44294f"/>
    </g>
  </g>
  <g id="Grupo_158" data-name="Grupo 158" transform="translate(54.531 74.587)">
    <g id="Grupo_157" data-name="Grupo 157">
      <rect id="Rectángulo_20" data-name="Rectángulo 20" width="17.48" height="4.184" fill="#44294f"/>
    </g>
  </g>
  <g id="Grupo_160" data-name="Grupo 160" transform="translate(76.381 74.587)">
    <g id="Grupo_159" data-name="Grupo 159">
      <rect id="Rectángulo_21" data-name="Rectángulo 21" width="8.74" height="4.184" fill="#44294f"/>
    </g>
  </g>
  <g id="Grupo_162" data-name="Grupo 162" transform="translate(102.6 48.069)">
    <g id="Grupo_161" data-name="Grupo 161">
      <rect id="Rectángulo_22" data-name="Rectángulo 22" width="8.74" height="4.184" fill="#44294f"/>
    </g>
  </g>
</svg>
