<svg id="company" xmlns="http://www.w3.org/2000/svg" width="17.936" height="21.867" viewBox="0 0 17.936 21.867">
  <path id="Trazado_1" data-name="Trazado 1" d="M51.969,134.787c-3.255-.019-5.947-6.662-5.947-10.046,0-5.527,4.146-6.737,5.744-6.737a6.609,6.609,0,0,1,2.167.533,4.844,4.844,0,0,0,1.238.355,3.851,3.851,0,0,0,.888-.288,7.115,7.115,0,0,1,2.676-.647h.006a5.485,5.485,0,0,1,4.59,2.318l.335.5-.482.363a4.054,4.054,0,0,0-1.944,3.343,3.773,3.773,0,0,0,2.105,3.488c.3.181.614.368.614.778,0,.267-2.132,6-5.228,6a4.2,4.2,0,0,1-1.766-.429,3.58,3.58,0,0,0-1.572-.378,4.042,4.042,0,0,0-1.244.337,6.1,6.1,0,0,1-2.158.5Z" transform="translate(-46.022 -112.92)" fill="#1d2332"/>
  <path id="Trazado_2" data-name="Trazado 2" d="M259.263,0c.081,2.907-2,4.925-4.076,4.8A4.633,4.633,0,0,1,259.263,0Z" transform="translate(-246.222)" fill="#1d2332"/>
</svg>
