<svg xmlns="http://www.w3.org/2000/svg" width="266.476" height="236.102" viewBox="0 0 266.476 236.102">
  <g id="ASK_A_DOCTOR" data-name="ASK A DOCTOR" transform="translate(-32.165 -43.088)">
    <g id="Grupo_200" data-name="Grupo 200" transform="translate(36.341 168.73)">
      <g id="Grupo_199" data-name="Grupo 199">
        <path id="Trazado_163" data-name="Trazado 163" d="M117.487,133.46h-12.8a69.533,69.533,0,0,0-69.514,69.514v36.773H187V202.974A69.512,69.512,0,0,0,117.487,133.46Z" transform="translate(-35.169 -133.46)" fill="#e8e6f4"/>
      </g>
    </g>
    <g id="Grupo_202" data-name="Grupo 202" transform="translate(48.993 168.73)">
      <g id="Grupo_201" data-name="Grupo 201">
        <path id="Trazado_164" data-name="Trazado 164" d="M113.936,133.46h-12.8a69.113,69.113,0,0,0-42.445,14.473,69.139,69.139,0,0,0-14.417,42.39V227.1H183.45V202.974A69.512,69.512,0,0,0,113.936,133.46Z" transform="translate(-44.269 -133.46)" fill="#94d3cc"/>
      </g>
    </g>
    <g id="Grupo_204" data-name="Grupo 204" transform="translate(62.534 229.467)">
      <g id="Grupo_203" data-name="Grupo 203">
        <rect id="Rectángulo_24" data-name="Rectángulo 24" width="8.342" height="45.552" fill="#44294f"/>
      </g>
    </g>
    <g id="Grupo_206" data-name="Grupo 206" transform="translate(153.639 229.467)">
      <g id="Grupo_205" data-name="Grupo 205">
        <rect id="Rectángulo_25" data-name="Rectángulo 25" width="8.342" height="45.552" fill="#44294f"/>
      </g>
    </g>
    <g id="Grupo_208" data-name="Grupo 208" transform="translate(51.523 47.262)">
      <g id="Grupo_207" data-name="Grupo 207">
        <path id="Trazado_165" data-name="Trazado 165" d="M106.816,46.09a60.735,60.735,0,1,0,60.741,60.727A60.586,60.586,0,0,0,106.816,46.09Z" transform="translate(-46.089 -46.09)" fill="#e8e6f4"/>
      </g>
    </g>
    <g id="Grupo_210" data-name="Grupo 210" transform="translate(59.865 47.262)">
      <g id="Grupo_209" data-name="Grupo 209">
        <path id="Trazado_166" data-name="Trazado 166" d="M104.475,46.09a60.586,60.586,0,0,0-41.68,16.558A60.727,60.727,0,0,0,154.552,141.2,60.735,60.735,0,0,0,104.475,46.09Z" transform="translate(-52.089 -46.09)" fill="#ffddbe"/>
      </g>
    </g>
    <g id="Grupo_212" data-name="Grupo 212" transform="translate(58.558 47.262)">
      <g id="Grupo_211" data-name="Grupo 211">
        <path id="Trazado_167" data-name="Trazado 167" d="M67.082,59.256c-.209.167-.417.334-.626.514-1.14.9-2.238,1.877-3.295,2.878a60.553,60.553,0,0,0-9.607,11.664c-.848,1.349-1.654,2.725-2.405,4.143v5.589H68.722a36.068,36.068,0,0,0,29.933-15.9l.014-.014a36,36,0,0,0,6.173-20.2V46.09A60.476,60.476,0,0,0,67.082,59.256Z" transform="translate(-51.149 -46.09)" fill="#e8e6f4"/>
      </g>
    </g>
    <g id="Grupo_214" data-name="Grupo 214" transform="translate(112.264 47.262)">
      <g id="Grupo_213" data-name="Grupo 213">
        <path id="Trazado_168" data-name="Trazado 168" d="M141.052,74.313a60.731,60.731,0,0,0-40.443-27.263c-.709-.125-1.418-.236-2.141-.348a61.763,61.763,0,0,0-8.689-.612v1.835A36.1,36.1,0,0,0,125.9,84.045h17.573v-5.6C142.721,77.024,141.928,75.647,141.052,74.313Z" transform="translate(-89.779 -46.09)" fill="#e8e6f4"/>
      </g>
    </g>
    <g id="Grupo_216" data-name="Grupo 216" transform="translate(123.095 48.221)">
      <g id="Grupo_215" data-name="Grupo 215">
        <path id="Trazado_169" data-name="Trazado 169" d="M97.569,46.78A36.127,36.127,0,0,0,132.59,74.043h5.422A60.73,60.73,0,0,0,97.569,46.78Z" transform="translate(-97.569 -46.78)" fill="#8479b9"/>
      </g>
    </g>
    <g id="Grupo_218" data-name="Grupo 218" transform="translate(60.963 47.262)">
      <g id="Grupo_217" data-name="Grupo 217">
        <path id="Trazado_170" data-name="Trazado 170" d="M104.18,46.09h-.014a60.476,60.476,0,0,0-37.76,13.166,1.884,1.884,0,0,1-.626.514c-1.14.9-2.238,1.877-3.295,2.878a60.553,60.553,0,0,0-9.607,11.664h24.9a36,36,0,0,0,20.2-6.173l.014-.014c.348-.25,5.992-4.407,8.356-7.855a35.452,35.452,0,0,0,6.52-13.569A61.763,61.763,0,0,0,104.18,46.09Z" transform="translate(-52.879 -46.09)" fill="#8479b9"/>
      </g>
    </g>
    <g id="Grupo_220" data-name="Grupo 220" transform="translate(47.35 43.088)">
      <g id="Grupo_219" data-name="Grupo 219">
        <path id="Trazado_171" data-name="Trazado 171" d="M107.993,43.088A64.907,64.907,0,1,0,172.9,108,64.981,64.981,0,0,0,107.993,43.088Zm0,121.471a56.565,56.565,0,1,1,56.566-56.565A56.628,56.628,0,0,1,107.993,164.559Z" transform="translate(-43.087 -43.088)" fill="#44294f"/>
      </g>
    </g>
    <g id="Grupo_222" data-name="Grupo 222" transform="translate(99.949 131.255)">
      <g id="Grupo_221" data-name="Grupo 221" transform="translate(0)">
        <path id="Trazado_172" data-name="Trazado 172" d="M100.723,106.506a8.657,8.657,0,0,1-14.99,0l-4.812,2.787a14.217,14.217,0,0,0,24.613,0Z" transform="translate(-80.921 -106.505)" fill="#44294f"/>
      </g>
    </g>
    <g id="Grupo_224" data-name="Grupo 224" transform="translate(32.165 164.559)">
      <g id="Grupo_223" data-name="Grupo 223">
        <path id="Trazado_173" data-name="Trazado 173" d="M118.664,130.46H105.85a73.768,73.768,0,0,0-73.685,73.685v40.946H192.348V204.145A73.769,73.769,0,0,0,118.664,130.46Zm65.343,106.289H40.507v-32.6A65.417,65.417,0,0,1,105.85,138.8h12.814a65.417,65.417,0,0,1,65.343,65.343Z" transform="translate(-32.165 -130.46)" fill="#44294f"/>
      </g>
    </g>
    <g id="Grupo_226" data-name="Grupo 226" transform="translate(72.012 173.831)">
      <g id="Grupo_225" data-name="Grupo 225">
        <path id="Trazado_174" data-name="Trazado 174" d="M80.478,185.522l6.42-7.175L68.441,137.129l-7.615,3.409,16.248,36.278-7.168,8.009,27.721,40.657,6.892-4.7Z" transform="translate(-60.826 -137.129)" fill="#44294f"/>
      </g>
    </g>
    <g id="Grupo_228" data-name="Grupo 228" transform="translate(108.81 173.831)">
      <g id="Grupo_227" data-name="Grupo 227">
        <path id="Trazado_175" data-name="Trazado 175" d="M130.986,140.538l-7.615-3.409-18.457,41.216,6.419,7.177L87.294,220.785l6.892,4.7L121.9,184.825l-7.165-8.008Z" transform="translate(-87.294 -137.129)" fill="#44294f"/>
      </g>
    </g>
    <g id="Grupo_230" data-name="Grupo 230" transform="translate(108.088 47.256)">
      <g id="Grupo_229" data-name="Grupo 229">
        <path id="Trazado_176" data-name="Trazado 176" d="M127.072,79.878A31.993,31.993,0,0,1,95.117,47.921V46.086H86.775v1.835a40.344,40.344,0,0,0,40.3,40.3h17.569V79.878Z" transform="translate(-86.775 -46.086)" fill="#44294f"/>
      </g>
    </g>
    <g id="Grupo_232" data-name="Grupo 232" transform="translate(58.559 47.256)">
      <g id="Grupo_231" data-name="Grupo 231">
        <path id="Trazado_177" data-name="Trazado 177" d="M100.676,46.086v1.835A31.994,31.994,0,0,1,68.72,79.878H51.15V88.22H68.72a40.344,40.344,0,0,0,40.3-40.3V46.086Z" transform="translate(-51.15 -46.086)" fill="#44294f"/>
      </g>
    </g>
    <g id="Grupo_234" data-name="Grupo 234" transform="translate(93.17 168.73)">
      <g id="Grupo_233" data-name="Grupo 233">
        <path id="Trazado_178" data-name="Trazado 178" d="M76.045,133.46,95.132,194.2l19.082-60.737Z" transform="translate(-76.045 -133.46)" fill="#eb6b69"/>
      </g>
    </g>
    <g id="Grupo_236" data-name="Grupo 236" transform="translate(87.49 164.559)">
      <g id="Grupo_235" data-name="Grupo 235">
        <path id="Trazado_179" data-name="Trazado 179" d="M71.959,130.46l24.768,78.822L121.49,130.46H71.959ZM83.323,138.8h26.8l-13.4,42.652Z" transform="translate(-71.959 -130.46)" fill="#44294f"/>
      </g>
    </g>
    <g id="Grupo_238" data-name="Grupo 238" transform="translate(108.087 229.467)">
      <g id="Grupo_237" data-name="Grupo 237">
        <rect id="Rectángulo_26" data-name="Rectángulo 26" width="8.342" height="45.55" fill="#44294f"/>
      </g>
    </g>
    <g id="Grupo_240" data-name="Grupo 240" transform="translate(82.592 104.601)">
      <g id="Grupo_239" data-name="Grupo 239">
        <circle id="Elipse_11" data-name="Elipse 11" cx="5.159" cy="5.159" r="5.159" fill="#44294f"/>
      </g>
    </g>
    <g id="Grupo_242" data-name="Grupo 242" transform="translate(131.196 104.601)">
      <g id="Grupo_241" data-name="Grupo 241">
        <circle id="Elipse_12" data-name="Elipse 12" cx="5.159" cy="5.159" r="5.159" fill="#44294f"/>
      </g>
    </g>
    <g id="Grupo_244" data-name="Grupo 244" transform="translate(68.394 90.096)">
      <g id="Grupo_243" data-name="Grupo 243">
        <path id="Trazado_180" data-name="Trazado 180" d="M77.889,76.9A19.665,19.665,0,1,0,97.555,96.565,19.687,19.687,0,0,0,77.889,76.9Zm0,30.986A11.323,11.323,0,1,1,89.213,96.564,11.336,11.336,0,0,1,77.889,107.886Z" transform="translate(-58.224 -76.9)" fill="#44294f"/>
      </g>
    </g>
    <g id="Grupo_246" data-name="Grupo 246" transform="translate(116.791 90.096)">
      <g id="Grupo_245" data-name="Grupo 245">
        <path id="Trazado_181" data-name="Trazado 181" d="M112.7,76.9a19.665,19.665,0,1,0,19.665,19.665A19.687,19.687,0,0,0,112.7,76.9Zm0,30.986a11.323,11.323,0,1,1,11.324-11.322A11.336,11.336,0,0,1,112.7,107.886Z" transform="translate(-93.035 -76.9)" fill="#44294f"/>
      </g>
    </g>
    <g id="Grupo_248" data-name="Grupo 248" transform="translate(51.386 164.851)">
      <g id="Grupo_247" data-name="Grupo 247">
        <path id="Trazado_182" data-name="Trazado 182" d="M65.48,161.338V152.47a13.7,13.7,0,0,1,.584-3.948c-.071.043-.138.092-.209.136.876-4.738,3.3-9.952,7.295-12.371a30.78,30.78,0,0,1,7.414-3.156Q78.041,132,75.643,130.67c-.271.044-.535.1-.8.157l-.01-.007c-.058.013-.115.031-.174.043a21.952,21.952,0,0,0-3.328.983c-.113.043-.225.089-.336.135q-.713.288-1.4.62l-.184.086q-.776.388-1.517.833c-.081.049-.16.1-.239.15q-.619.384-1.21.8c-.1.071-.2.139-.295.21-.457.338-.9.687-1.333,1.058l-.056.05c-.4.348-.783.712-1.157,1.087-.106.106-.209.211-.311.32q-.482.5-.931,1.034c-.065.076-.133.152-.2.229-.345.42-.672.852-.984,1.3-.09.128-.175.26-.264.391q-.344.511-.66,1.041c-.088.146-.177.292-.261.441-.256.452-.5.912-.724,1.383a.007.007,0,0,1,.006,0,21.942,21.942,0,0,0-2.133,9.452v8.874a15.314,15.314,0,1,0,8.343,0Zm-4.171,21.7a6.975,6.975,0,1,1,6.975-6.975A6.983,6.983,0,0,1,61.309,183.039Z" transform="translate(-45.99 -130.67)" fill="#8d386d"/>
      </g>
    </g>
    <g id="Grupo_250" data-name="Grupo 250" transform="translate(188.173 92.807)">
      <g id="Grupo_249" data-name="Grupo 249">
        <path id="Trazado_183" data-name="Trazado 183" d="M236.777,78.85H158.282c-.361,0-.723.014-1.07.042a13.387,13.387,0,0,0-2.6.459,13.9,13.9,0,0,0-10.232,13.4v63.3a13.908,13.908,0,0,0,13.9,13.9h17.684c.056.64.083,1.293.083,1.946a22.78,22.78,0,0,1-11.386,19.714c3.351,1.932,8.884.959,13.041.959,9.2,0,16.252-4.324,19.339-11.595a10.789,10.789,0,0,0,.473-1.168,23.085,23.085,0,0,0,1.307-7.911c0-.653-.028-1.307-.083-1.946h38.038a13.9,13.9,0,0,0,13.4-10.219,15.54,15.54,0,0,0,.334-1.6,12.926,12.926,0,0,0,.167-2.085v-63.3A13.908,13.908,0,0,0,236.777,78.85Z" transform="translate(-144.379 -78.85)" fill="#e8e6f4"/>
      </g>
    </g>
    <g id="Grupo_252" data-name="Grupo 252" transform="translate(197.905 92.807)">
      <g id="Grupo_251" data-name="Grupo 251">
        <path id="Trazado_184" data-name="Trazado 184" d="M234.045,78.85H155.55c-.361,0-.723.014-1.071.042a13.387,13.387,0,0,0-2.6.459,13.368,13.368,0,0,0-.5,3.67v63.3a13.908,13.908,0,0,0,13.9,13.9h17.684c.056.64.083,1.293.083,1.946a22.78,22.78,0,0,1-11.386,19.714c3.351,1.932,8.884.959,13.041.959a23.968,23.968,0,0,0,9.607-1.863,10.792,10.792,0,0,0,.473-1.168,23.085,23.085,0,0,0,1.307-7.911c0-.653-.028-1.307-.083-1.946h38.038a13.9,13.9,0,0,0,13.4-10.219,15.544,15.544,0,0,0,.334-1.6,12.927,12.927,0,0,0,.167-2.085v-63.3A13.908,13.908,0,0,0,234.045,78.85Z" transform="translate(-151.379 -78.85)" fill="#eb6b69"/>
      </g>
    </g>
    <g id="Grupo_254" data-name="Grupo 254" transform="translate(184.008 88.636)">
      <g id="Grupo_253" data-name="Grupo 253">
        <path id="Trazado_185" data-name="Trazado 185" d="M237.94,75.85H159.457a18.094,18.094,0,0,0-18.074,18.074v63.3A18.094,18.094,0,0,0,159.457,175.3h13.456a18.7,18.7,0,0,1-9.173,13.872l-6.228,3.609,6.228,3.609a16.322,16.322,0,0,0,8.28,1.774c1.3,0,2.6-.068,3.844-.135,1.05-.056,2.069-.113,3.013-.113,14.359,0,24.244-9,25.213-22.617h33.852a18.094,18.094,0,0,0,18.074-18.074v-63.3A18.1,18.1,0,0,0,237.94,75.85Zm9.732,81.376a9.743,9.743,0,0,1-9.732,9.732H195.36l.392,4.531c.046.523.072,1.051.072,1.586,0,10.177-6.494,16.5-16.947,16.5-1.02,0-2.119.053-3.25.113a26.953,26.953,0,0,0,5.764-16.611c0-.767-.033-1.545-.1-2.308l-.329-3.811h-21.5a9.744,9.744,0,0,1-9.732-9.732v-63.3a9.744,9.744,0,0,1,9.732-9.732h78.484a9.744,9.744,0,0,1,9.732,9.732v63.3Z" transform="translate(-141.383 -75.85)" fill="#44294f"/>
      </g>
    </g>
    <g id="Grupo_256" data-name="Grupo 256" transform="translate(220.884 104.63)">
      <g id="Grupo_255" data-name="Grupo 255">
        <path id="Trazado_186" data-name="Trazado 186" d="M176.482,154.123h11.73V142.755h-11.73Zm26.888-61.9q-5.414-4.872-14.437-4.872a24.946,24.946,0,0,0-11.278,2.391,17.319,17.319,0,0,0-7.309,6.587,17.669,17.669,0,0,0-2.437,9.61h9.835a9.567,9.567,0,0,1,2.978-7.309,11.01,11.01,0,0,1,7.849-2.8,9.973,9.973,0,0,1,7.309,2.662,9.846,9.846,0,0,1,2.707,7.355q0,6.949-4.511,9.519t-12.362,2.572h-4.331v16.782h9.746V124.8q10.016-.179,15.835-4.917t5.821-14.121Q208.785,97.1,203.37,92.226Z" transform="translate(-167.907 -87.354)" fill="#44294f"/>
      </g>
    </g>
    <g id="Grupo_258" data-name="Grupo 258" transform="translate(103.554 105.589)">
      <g id="Grupo_257" data-name="Grupo 257">
        <rect id="Rectángulo_27" data-name="Rectángulo 27" width="17.408" height="8.342" fill="#44294f"/>
      </g>
    </g>
    <g id="Grupo_260" data-name="Grupo 260" transform="translate(138.453 164.851)">
      <g id="Grupo_259" data-name="Grupo 259">
        <path id="Trazado_187" data-name="Trazado 187" d="M136.324,167.375l-4.181-4.179v-8.015s0,0-.006-.006v-2.711a21.9,21.9,0,0,0-2.156-9.471c.011.007.024.014.035.022-.1-.215-.217-.424-.325-.635l-.107-.209a22.147,22.147,0,0,0-1.781-2.828l0,0c-.331-.446-.68-.877-1.043-1.3l-.054-.063a22.047,22.047,0,0,0-13.064-7.31q-2.4,1.335-4.922,2.461a30.107,30.107,0,0,1,7.438,2.939c3.98,2.419,6.392,7.759,7.264,12.549a1.285,1.285,0,0,1-.2-.1,13.721,13.721,0,0,1,.576,3.841c0,.033,0,.07,0,.1v10.725l-4.186,4.186a37.313,37.313,0,0,0-10.993,26.55v16.544h8.342V193.925a29.022,29.022,0,0,1,8.552-20.651l2.458-2.458,2.458,2.458a29.018,29.018,0,0,1,8.56,20.66v16.537h8.342V193.933A37.3,37.3,0,0,0,136.324,167.375Z" transform="translate(-108.616 -130.67)" fill="#8d386d"/>
      </g>
    </g>
  </g>
</svg>
