<svg xmlns="http://www.w3.org/2000/svg" width="165" height="283.456" viewBox="0 0 165 283.456">
  <g id="BROKEN_ARM" data-name="BROKEN ARM" transform="translate(-66.519 -22.381)">
    <g id="Grupo_526" data-name="Grupo 526" transform="translate(70.545 144.12)">
      <g id="Grupo_525" data-name="Grupo 525">
        <path id="Trazado_292" data-name="Trazado 292" d="M154.613,113.1H141.374a72.07,72.07,0,0,0-15.233,1.617,71.9,71.9,0,0,0-55.365,56.873H69.519V250.3H187.231v.067h39.235V184.959A71.856,71.856,0,0,0,154.613,113.1Z" transform="translate(-69.519 -113.104)" fill="#e8e6f4"/>
      </g>
    </g>
    <g id="Grupo_528" data-name="Grupo 528" transform="translate(84.316 144.12)">
      <g id="Grupo_527" data-name="Grupo 527">
        <path id="Trazado_293" data-name="Trazado 293" d="M151.1,113.1H137.865a72.07,72.07,0,0,0-15.233,1.617,71.375,71.375,0,0,0-27.062,12.168c-7.209,8.993-13.576,19.744-15.789,31.531v78.711H197.494v.067h25.463V184.959A71.856,71.856,0,0,0,151.1,113.1Z" transform="translate(-79.782 -113.104)" fill="#eb6b69"/>
      </g>
    </g>
    <g id="Grupo_530" data-name="Grupo 530" transform="translate(109.867 145.737)">
      <g id="Grupo_529" data-name="Grupo 529">
        <path id="Trazado_294" data-name="Trazado 294" d="M116.122,114.309l-17.3,6.161,21.018,70.885,18.915-.036Z" transform="translate(-98.823 -114.309)" fill="#94d3cc"/>
      </g>
    </g>
    <g id="Grupo_532" data-name="Grupo 532" transform="translate(70.542 202.376)">
      <g id="Grupo_531" data-name="Grupo 531">
        <path id="Trazado_295" data-name="Trazado 295" d="M167.748,176.931l-18.973-.042-18.915.036v.005H117.736a8.981,8.981,0,0,1-8.981-8.981v-11.2H85l-14.2-.232a72.218,72.218,0,0,0-1.286,13.6v9.823a35.927,35.927,0,0,0,35.91,35.927l62.313.031a19.485,19.485,0,0,0,19.495-19.484h0A19.489,19.489,0,0,0,167.748,176.931Z" transform="translate(-69.517 -156.518)" fill="#e8e6f4"/>
      </g>
    </g>
    <g id="Grupo_534" data-name="Grupo 534" transform="translate(84.314 202.58)">
      <g id="Grupo_533" data-name="Grupo 533">
        <path id="Trazado_296" data-name="Trazado 296" d="M164.239,176.879l-37.9-.042-12.112.042a8.981,8.981,0,0,1-8.981-8.981V156.7H81.5l-1.711-.028c0,.075-.005.149-.005.224v9.823a35.927,35.927,0,0,0,35.91,35.927l62.313.031a19.434,19.434,0,0,0,4.878-.637,19.464,19.464,0,0,0,.845-5.673h0A19.489,19.489,0,0,0,164.239,176.879Z" transform="translate(-79.78 -156.67)" fill="#94d3cc"/>
      </g>
    </g>
    <g id="Grupo_536" data-name="Grupo 536" transform="translate(168.639 222.789)">
      <g id="Grupo_535" data-name="Grupo 535">
        <path id="Trazado_297" data-name="Trazado 297" d="M142.755,171.73h-.134V210.7h.125a19.485,19.485,0,0,0,19.495-19.484h0A19.487,19.487,0,0,0,142.755,171.73Z" transform="translate(-142.621 -171.73)" fill="#ffddbe"/>
      </g>
    </g>
    <g id="Grupo_538" data-name="Grupo 538" transform="translate(90.16 26.404)">
      <g id="Grupo_537" data-name="Grupo 537">
        <path id="Trazado_298" data-name="Trazado 298" d="M142.986,25.379a58.867,58.867,0,1,0,58.867,58.867A58.438,58.438,0,0,0,142.986,25.379Z" transform="translate(-84.137 -25.379)" fill="#e8e6f4"/>
      </g>
    </g>
    <g id="Grupo_540" data-name="Grupo 540" transform="translate(99.143 26.404)">
      <g id="Grupo_539" data-name="Grupo 539">
        <path id="Trazado_299" data-name="Trazado 299" d="M140.7,25.379a58.438,58.438,0,0,0-36.861,13.005A58.849,58.849,0,0,0,186.6,121.107a58.867,58.867,0,0,0-45.9-95.728Z" transform="translate(-90.831 -25.379)" fill="#ffddbe"/>
      </g>
    </g>
    <g id="Grupo_542" data-name="Grupo 542" transform="translate(93.648 26.404)">
      <g id="Grupo_541" data-name="Grupo 541">
        <path id="Trazado_300" data-name="Trazado 300" d="M193.834,56.2a58.878,58.878,0,0,0-107.1,8.049l.664.934a48.027,48.027,0,0,0,39.035-19.994,1.3,1.3,0,0,0,.144-.18l-3.9-7.4a59.384,59.384,0,0,0,4.886,6.664A58.711,58.711,0,0,0,172.53,65.186h25.257A58.433,58.433,0,0,0,193.834,56.2Z" transform="translate(-86.736 -25.379)" fill="#e8e6f4"/>
      </g>
    </g>
    <g id="Grupo_544" data-name="Grupo 544" transform="translate(102.628 26.404)">
      <g id="Grupo_543" data-name="Grupo 543">
        <path id="Trazado_301" data-name="Trazado 301" d="M139.81,25.379A58.467,58.467,0,0,0,102.931,38.4a58.663,58.663,0,0,0-9.5,16.867l.664.934a48.567,48.567,0,0,0,30.053-11.011l1.131-.917a52.647,52.647,0,0,0,8.659-9.377A58.692,58.692,0,0,0,179.221,56.2h12.322A58.773,58.773,0,0,0,139.81,25.379Z" transform="translate(-93.428 -25.379)" fill="#fcc800"/>
      </g>
    </g>
    <g id="Grupo_546" data-name="Grupo 546" transform="translate(129.399 144.123)">
      <g id="Grupo_545" data-name="Grupo 545">
        <path id="Trazado_302" data-name="Trazado 302" d="M113.379,113.106a19.62,19.62,0,0,0,39.239,0Z" transform="translate(-113.379 -113.106)" fill="#ffddbe"/>
      </g>
    </g>
    <g id="Grupo_548" data-name="Grupo 548" transform="translate(188.257 281.388)">
      <g id="Grupo_547" data-name="Grupo 547">
        <path id="Trazado_303" data-name="Trazado 303" d="M157.241,215.4v.806a19.618,19.618,0,1,0,39.236,0V215.4Z" transform="translate(-157.241 -215.399)" fill="#ffddbe"/>
      </g>
    </g>
    <g id="Grupo_550" data-name="Grupo 550" transform="translate(124.059 82.827)">
      <g id="Grupo_549" data-name="Grupo 549">
        <path id="Trazado_304" data-name="Trazado 304" d="M119.477,67.427h-9.484a5.335,5.335,0,1,0,9.484,0Z" transform="translate(-109.399 -67.427)" fill="#44294f"/>
      </g>
    </g>
    <g id="Grupo_552" data-name="Grupo 552" transform="translate(163.309 82.827)">
      <g id="Grupo_551" data-name="Grupo 551" transform="translate(0)">
        <path id="Trazado_305" data-name="Trazado 305" d="M148.727,67.427h-9.484a5.335,5.335,0,1,0,9.484,0Z" transform="translate(-138.649 -67.427)" fill="#44294f"/>
      </g>
    </g>
    <g id="Grupo_554" data-name="Grupo 554" transform="translate(131.891 102.201)">
      <g id="Grupo_553" data-name="Grupo 553">
        <path id="Trazado_306" data-name="Trazado 306" d="M132.364,81.865a19.853,19.853,0,0,0-17.128,9.88l4.646,2.69a14.418,14.418,0,0,1,24.966,0l4.644-2.689A19.853,19.853,0,0,0,132.364,81.865Z" transform="translate(-115.236 -81.865)" fill="#44294f"/>
      </g>
    </g>
    <g id="Grupo_556" data-name="Grupo 556" transform="translate(66.519 22.381)">
      <g id="Grupo_555" data-name="Grupo 555">
        <path id="Trazado_307" data-name="Trazado 307" d="M174.865,142.569a62.884,62.884,0,1,0-51.7-.005,75.919,75.919,0,0,0-56.642,73.41v69.371l117.956.048a23.614,23.614,0,0,0,46.8.019h.246V215.974A76.01,76.01,0,0,0,174.865,142.569ZM149.019,30.432a54.9,54.9,0,0,1,49.719,31.75H179.433a54.742,54.742,0,0,1-48.243-28.758A54.528,54.528,0,0,1,149.019,30.432Zm-25.253,6.185a62.966,62.966,0,0,0,5.366,8.491,44.241,44.241,0,0,1-29.7,16.768A55.187,55.187,0,0,1,123.766,36.617ZM94.186,85.264a54.631,54.631,0,0,1,2.13-15.092,52.283,52.283,0,0,0,38.147-18.839,62.79,62.79,0,0,0,44.97,18.9H201.74a54.794,54.794,0,0,1-52.591,69.861h-.258A54.892,54.892,0,0,1,94.186,85.264Zm69.747,63.406a15.59,15.59,0,0,1-29.827,0,68.622,68.622,0,0,1,8.3-.522h6.489l.129,0,.129,0h6.491A68.229,68.229,0,0,1,163.933,148.671Zm-39.54,1.907,20.038,68.181H133.884L114.71,154.072A67.316,67.316,0,0,1,124.393,150.577ZM155.086,257.73l-35.454-.02,12.375-30.9h5.778Zm-8.075-30.922h17.528v30.928h-.223Zm-36.05,30.9-4.5,0a31.782,31.782,0,0,1-20.889-7.841l27.781-24.246a12.91,12.91,0,0,0,5.409,1.193h4.574ZM107.44,157.87l18.054,60.886H118.76A4.961,4.961,0,0,1,113.8,213.8V198.583H76.837A68.279,68.279,0,0,1,107.44,157.87Zm-32.869,58.1a67.8,67.8,0,0,1,.647-9.339h30.534V213.8a12.919,12.919,0,0,0,1.649,6.322L80.2,243.862A31.7,31.7,0,0,1,74.57,225.8v-9.827Zm109.662,61.32H74.57V249.819a39.944,39.944,0,0,0,31.882,15.935l62.318.035a23.267,23.267,0,0,0,15.461-5.832v17.338Zm0-34.968a15.451,15.451,0,0,1-11.643,14.92V227.3a15.477,15.477,0,0,1,11.643,14.916Zm23.643,55.458a15.619,15.619,0,0,1-15.257-12.373h30.516A15.62,15.62,0,0,1,207.875,297.785Zm15.593-20.423H211.9V237.3h-8.051v40.058H192.284V242.327c0-.017,0-.036,0-.054s0-.035,0-.052V183.29h-8.051V224.6a23.391,23.391,0,0,0-15.461-5.843H152.825l-15.991-54.41a23.559,23.559,0,0,0,35.031-14.227,67.941,67.941,0,0,1,51.6,65.854v61.388Z" transform="translate(-66.519 -22.381)" fill="#44294f"/>
      </g>
    </g>
    <g id="Grupo_558" data-name="Grupo 558" transform="translate(203.851 203.202)">
      <g id="Grupo_557" data-name="Grupo 557" transform="translate(0)">
        <rect id="Rectángulo_46" data-name="Rectángulo 46" width="8.051" height="19.758" fill="#44294f"/>
      </g>
    </g>
  </g>
</svg>
