<svg xmlns="http://www.w3.org/2000/svg" width="28.759" height="26.606" viewBox="0 0 28.759 26.606">
  <path id="comment.alt.fill" d="M5.595,3H27.164a3.6,3.6,0,0,1,3.595,3.595V19.8a3.6,3.6,0,0,1-3.595,3.595H16.7a1.438,1.438,0,0,0-.861.286L8.1,29.462a.719.719,0,0,1-1.149-.576V23.393H5.595A3.6,3.6,0,0,1,2,19.8V6.595A3.6,3.6,0,0,1,5.595,3ZM9.19,9.111a1.078,1.078,0,0,0,0,2.157H23.569a1.078,1.078,0,0,0,0-2.157Zm0,5.752a1.078,1.078,0,0,0,0,2.157h8.628a1.078,1.078,0,0,0,0-2.157Z" transform="translate(-2 -3)" fill="#393939" fill-rule="evenodd"/>
</svg>
