<svg class="depression" xmlns="http://www.w3.org/2000/svg" width="143.671" height="137.771" viewBox="0 0 143.671 137.771">
  <defs>
    <style>
      .depression .a{fill:#e8e6f4;}
      .depression .b{fill:#8d386d;}
      .depression .c{fill:#ffddbe;}
      .depression .d{fill:#fcc800;}
      .depression .e{fill:#44294f;}
    </style>
  </defs>
  <g transform="translate(2.256 68.884)">
    <path class="a" d="M83.5,128H76.009a40.692,40.692,0,0,0-40.673,40.673v25.96h88.839v-25.96A40.675,40.675,0,0,0,83.5,128Z" transform="translate(-35.336 -127.998)" />
  </g>
  <g transform="translate(9.658 68.884)">
    <path class="b" d="M85.958,128H78.465a40.442,40.442,0,0,0-24.871,8.5,40.443,40.443,0,0,0-8.4,24.739V187.2h81.437V168.671A40.675,40.675,0,0,0,85.958,128Z" transform="translate(-45.194 -127.998)" />
  </g>
  <g transform="translate(13.359 2.251)">
    <path class="a" d="M83.434,39.258a33.321,33.321,0,1,0,33.322,33.321A33.079,33.079,0,0,0,83.434,39.258Z" transform="translate(-50.123 -39.258)" />
  </g>
  <g transform="translate(18.443 2.251)">
    <path class="c" d="M85.121,39.258A33.079,33.079,0,0,0,64.256,46.62,33.311,33.311,0,0,0,111.1,93.445a33.322,33.322,0,0,0-25.98-54.187Z" transform="translate(-56.894 -39.258)" />
  </g>
  <g transform="translate(15.33 2.25)">
    <path class="a" d="M113.372,56.706a33.329,33.329,0,0,0-60.624,4.556l.376.529a27.187,27.187,0,0,0,22.1-11.317.726.726,0,0,0,.081-.1l-2.207-4.189a33.585,33.585,0,0,0,2.765,3.772,33.233,33.233,0,0,0,25.451,11.836h14.3A32.778,32.778,0,0,0,113.372,56.706Z" transform="translate(-52.748 -39.257)" />
  </g>
  <g transform="translate(20.415 2.251)">
    <path class="d" d="M85.775,39.258A33.1,33.1,0,0,0,64.9,46.63a33.209,33.209,0,0,0-5.379,9.548l.376.529a27.5,27.5,0,0,0,17.012-6.233l.64-.519a29.839,29.839,0,0,0,4.9-5.308,33.223,33.223,0,0,0,25.634,12.06h6.976A33.27,33.27,0,0,0,85.775,39.258Z" transform="translate(-59.52 -39.258)" />
  </g>
  <g transform="translate(35.569 68.885)">
    <path class="c" d="M79.7,128a11.105,11.105,0,0,0,22.211,0H79.7Z" transform="translate(-79.702 -128)" />
  </g>
  <g transform="translate(83.273 38.468)">
    <path class="a" d="M194.487,104.936a6.869,6.869,0,0,0-1.174.107,10.544,10.544,0,0,0-18.515-3.208,11.144,11.144,0,1,0-20.518,2.019,7.8,7.8,0,0,0-8.841,1.537c-3.049,3.049-2.832,7.789,0,11.04,2.271,2.609,6.441,2.286,6.441,2.286l21.086-.02v.02h21.522a6.891,6.891,0,1,0,0-13.782Z" transform="translate(-143.233 -87.491)" />
  </g>
  <path class="e" d="M93.56,104.272a35.569,35.569,0,1,0-29.106,0,43,43,0,0,0-32.122,41.547v28.213h93.35V145.819A43,43,0,0,0,93.56,104.272ZM79.006,40.765A31.1,31.1,0,0,1,107.19,58.789H96.222A31.01,31.01,0,0,1,68.876,42.47,30.9,30.9,0,0,1,79.006,40.765ZM64.723,44.258A35.641,35.641,0,0,0,67.782,49.1,25.069,25.069,0,0,1,50.9,58.62,31.257,31.257,0,0,1,64.723,44.258ZM47.943,71.829a30.954,30.954,0,0,1,1.211-8.568A29.567,29.567,0,0,0,70.765,52.584a35.516,35.516,0,0,0,25.457,10.71h12.646a31.061,31.061,0,1,1-60.925,8.535ZM87.48,107.7a8.849,8.849,0,0,1-16.948,0,38.639,38.639,0,0,1,4.725-.3h7.5A38.626,38.626,0,0,1,87.48,107.7Zm33.7,61.826H103.47V127.356H98.965v42.169H65.353v-19.5H60.848v19.5h-1.8V127.356H54.543v42.169H36.837V145.818A38.484,38.484,0,0,1,66.094,108.51a13.338,13.338,0,0,0,25.824,0,38.482,38.482,0,0,1,29.257,37.308Z" transform="translate(-32.332 -36.26)" />
  <g transform="translate(32.546 34.19)">
    <path class="e" d="M81.38,81.793H76.012a3.02,3.02,0,1,0,5.369,0Z" transform="translate(-75.676 -81.793)" />
  </g>
  <g transform="translate(54.764 34.19)">
    <path class="e" d="M110.969,81.793H105.6a3.02,3.02,0,1,0,5.369,0Z" transform="translate(-105.265 -81.793)" />
  </g>
  <g transform="translate(36.994 45.173)">
    <path class="e" d="M91.28,96.42a11.22,11.22,0,0,0-9.68,5.585l2.6,1.5a8.179,8.179,0,0,1,14.162,0l2.6-1.506A11.219,11.219,0,0,0,91.28,96.42Z" transform="translate(-81.6 -96.42)" />
  </g>
  <g transform="translate(81.022 36.215)">
    <path class="e" d="M194.065,101.942a12.827,12.827,0,0,0-17.418-5.932,13.4,13.4,0,1,0-26.478,4.1,10.067,10.067,0,0,0-7.069,2.937c-3.777,3.778-3.822,9.845-.106,14.113,2.407,2.763,6.1,3.076,7.646,3.075.252,0,.447-.008.57-.016l20.71-.02a2.209,2.209,0,0,0,.3.02h21.522a9.143,9.143,0,0,0,.324-18.281Zm-.324,13.775H172.519a2.229,2.229,0,0,0-.3-.02h0l-21.086.02c-.049,0-.11,0-.159.006-.854.058-3.35-.106-4.58-1.519-2.178-2.5-2.222-5.852-.107-7.968a5.567,5.567,0,0,1,6.289-1.092,2.253,2.253,0,0,0,2.948-3.1,8.782,8.782,0,0,1-1.035-4.16,8.893,8.893,0,1,1,17.787,0,8.787,8.787,0,0,1-.378,2.547,2.252,2.252,0,0,0,3.957,2,8.291,8.291,0,0,1,14.562,2.521,2.25,2.25,0,0,0,2.535,1.554,4.7,4.7,0,0,1,.791-.074,4.638,4.638,0,0,1,0,9.276Z" transform="translate(-140.236 -84.491)" />
  </g>
  <g transform="translate(116.771 73.373)">
    <path class="e" d="M192.982,138.813l-2.422-4.836-2.416,4.839a2.789,2.789,0,0,0,2.175,4.046c.081.007.162.01.245.01h0c.082,0,.163,0,.243-.01A2.79,2.79,0,0,0,192.982,138.813Z" transform="translate(-187.845 -133.977)" />
  </g>
  <g transform="translate(102.185 73.373)">
    <path class="e" d="M173.558,138.813l-2.422-4.836-2.416,4.839a2.79,2.79,0,0,0,2.175,4.046c.081.007.162.01.245.01s.163,0,.243-.01A2.79,2.79,0,0,0,173.558,138.813Z" transform="translate(-168.42 -133.977)" />
  </g>
  <g transform="translate(116.771 92.031)">
    <path class="e" d="M192.982,163.661l-2.422-4.836-2.416,4.839a2.789,2.789,0,0,0,2.175,4.046c.081.007.162.01.245.01h0c.082,0,.163,0,.243-.01A2.79,2.79,0,0,0,192.982,163.661Z" transform="translate(-187.845 -158.825)" />
  </g>
  <g transform="translate(102.185 92.031)">
    <path class="e" d="M173.558,163.661l-2.422-4.836-2.416,4.839a2.79,2.79,0,0,0,2.175,4.046c.081.007.162.01.245.01s.163,0,.243-.01A2.79,2.79,0,0,0,173.558,163.661Z" transform="translate(-168.42 -158.825)" />
  </g>
  <g transform="translate(109.436 81.625)">
    <path class="e" d="M183.215,149.8l-2.422-4.836-2.416,4.839a2.79,2.79,0,0,0,2.175,4.046c.081.007.162.01.245.01h0c.082,0,.163,0,.243-.01A2.79,2.79,0,0,0,183.215,149.8Z" transform="translate(-178.077 -144.966)" />
  </g>
  <g transform="translate(94.924 81.625)">
    <path class="e" d="M163.887,149.8l-2.422-4.836-2.416,4.839a2.79,2.79,0,0,0,2.175,4.046c.081.007.162.01.245.01h0c.082,0,.163,0,.243-.01A2.79,2.79,0,0,0,163.887,149.8Z" transform="translate(-158.75 -144.966)" />
  </g>
  <g transform="translate(124.325 81.625)">
    <path class="e" d="M203.044,149.8l-2.422-4.836-2.416,4.839a2.79,2.79,0,0,0,2.175,4.046c.081.007.162.01.245.01h0c.082,0,.163,0,.243-.01A2.79,2.79,0,0,0,203.044,149.8Z" transform="translate(-197.906 -144.966)" />
  </g>
  <g transform="translate(28.516 97.246)">
    <rect class="e" width="4.505" height="9.573" />
  </g>
</svg>