<svg xmlns="http://www.w3.org/2000/svg" width="136.116" height="136.115" viewBox="0 0 136.116 136.115"><defs><style>.a{fill:#e8e6f4;}.b{fill:#8d386d;}.c{fill:#94d3cc;}.d{fill:#ffddbe;}.e{fill:#8479b9;}.f{fill:#fcc800;}.g{fill:#44294f;}</style></defs><g transform="translate(19.911 2.408)"><path class="a" d="M179.121,46.091H70.534a2.6,2.6,0,0,0-2.6,2.6v82.325a2.61,2.61,0,0,0,2.6,2.6H179.121a2.6,2.6,0,0,0,2.6-2.6V48.7A2.6,2.6,0,0,0,179.121,46.091Z" transform="translate(-67.929 -46.091)"/></g><g transform="translate(25.746 2.408)"><path class="b" d="M180.566,46.091H75.209v79.087a2.607,2.607,0,0,0,2.613,2.6H183.171V48.7A2.6,2.6,0,0,0,180.566,46.091Z" transform="translate(-75.209 -46.091)"/></g><g transform="translate(28.663 11.16)"><path class="a" d="M172.953,57.011H81.037A2.191,2.191,0,0,0,78.849,59.2v65.646a2.2,2.2,0,0,0,2.188,2.2h91.916a2.193,2.193,0,0,0,2.188-2.2V59.2A2.186,2.186,0,0,0,172.953,57.011Z" transform="translate(-78.849 -57.011)"/></g><g transform="translate(34.506 11.16)"><path class="c" d="M174.4,57.011H86.139v62a2.186,2.186,0,0,0,2.188,2.188h88.261v-62A2.186,2.186,0,0,0,174.4,57.011Z" transform="translate(-86.139 -57.011)"/></g><g transform="translate(2.406 81.187)"><path class="a" d="M92.071,144.381H70.134a24.053,24.053,0,0,0-24.045,24.045V196.9h70.027V168.426A24.044,24.044,0,0,0,92.071,144.381Z" transform="translate(-46.089 -144.381)"/></g><g transform="translate(11.159 28.665)"><path class="a" d="M83.266,78.851a26.253,26.253,0,1,0,26.265,26.265A26.094,26.094,0,0,0,83.266,78.851Z" transform="translate(-57.009 -78.851)"/></g><g transform="translate(8.241 81.187)"><path class="d" d="M93.516,144.381H71.579a23.877,23.877,0,0,0-13.826,4.376,23.888,23.888,0,0,0-4.384,13.834v28.477h64.192V168.426A24.044,24.044,0,0,0,93.516,144.381Z" transform="translate(-53.369 -144.381)"/></g><g transform="translate(16.993 28.665)"><path class="d" d="M84.711,78.851A26.094,26.094,0,0,0,69.3,83.86a26.253,26.253,0,0,0,36.669,36.669A26.253,26.253,0,0,0,84.711,78.851Z" transform="translate(-64.289 -78.851)"/></g><g transform="translate(12.715 28.666)"><path class="a" d="M83.656,78.852a26.27,26.27,0,0,0-24.7,17.34l.295.418a22.507,22.507,0,0,0,17.844-9.42,26.129,26.129,0,0,0,20.136,9.42H108.5A26.269,26.269,0,0,0,83.656,78.852Z" transform="translate(-58.951 -78.852)"/></g><g transform="translate(16.721 28.665)"><path class="e" d="M84.644,78.851a26.089,26.089,0,0,0-16.455,5.811,26.168,26.168,0,0,0-4.24,7.526l.3.417A21.566,21.566,0,0,0,77.711,87.6c.144-.112.281-.232.417-.353a23.184,23.184,0,0,0,3.855-4.184l-.016-.032A26.176,26.176,0,0,0,102.229,92.6h5.5A26.225,26.225,0,0,0,84.644,78.851Z" transform="translate(-63.949 -78.851)"/></g><g transform="translate(28.615 98.559)"><circle class="f" cx="8.891" cy="8.891" r="8.891"/></g><path class="g" d="M174.192,43.087H65.605A5.016,5.016,0,0,0,60.6,48.1V77.421a28.618,28.618,0,0,0,4.6,44.811A26.488,26.488,0,0,0,43.087,148.32V179.2h74.839v-8.754H133.4a6.419,6.419,0,0,0,6.412-6.412V135.43h34.382a5.016,5.016,0,0,0,5.011-5.01V48.1A5.016,5.016,0,0,0,174.192,43.087ZM69,77.122a28.622,28.622,0,0,0,1.868,2.966,19.141,19.141,0,0,1-11.417,6.717A24.022,24.022,0,0,1,69,77.122ZM56.65,98.015a23.8,23.8,0,0,1,.8-6.14,23.944,23.944,0,0,0,16.6-8.118,28.611,28.611,0,0,0,20.022,8.159h9.494a23.856,23.856,0,1,1-46.92,6.1Zm51.863-6.1h8.514l2.643-5.437,7.709,19.543,5.67-23.923,8.734,36.253,9.091-37.734,3.57,11.048h11.2v30.2H96.381a28.619,28.619,0,0,0,12.132-29.953Zm49.432-5.06L150.2,62.889l-8.417,34.932L133.01,61.409l-6.778,28.6-6.1-15.473-6.111,12.572h-7.007A28.63,28.63,0,0,0,74.157,70.066V56.65h91.483V86.856Zm-77.439-12.7a23.876,23.876,0,0,1,21.207,12.95H94.076A23.807,23.807,0,0,1,74.143,76.344l.014,0V75.022A23.791,23.791,0,0,1,80.506,74.157Zm32.612,100.237h-12.7v-3.945h12.7Zm0-8.754h-12.7V148.321H95.609V165.64h-11.1a1.6,1.6,0,0,1-1.6-1.6v-2.445a11.312,11.312,0,1,0-4.81-.045v2.49a6.419,6.419,0,0,0,6.412,6.412h11.1v3.945H65.4V148.321H60.6v26.073H47.9V148.321A21.665,21.665,0,0,1,69.537,126.68h21.94a21.665,21.665,0,0,1,21.641,21.641Zm-32.523-8.616a6.487,6.487,0,1,1,6.487-6.487A6.495,6.495,0,0,1,80.594,157.024ZM135,164.037a1.6,1.6,0,0,1-1.6,1.6H117.926V148.321a26.277,26.277,0,0,0-3.366-12.89H135v28.606Zm39.393-33.616a.2.2,0,0,1-.2.2H111.113a26.646,26.646,0,0,0-4.46-3.944h59.2a4.6,4.6,0,0,0,4.593-4.593V56.434a4.6,4.6,0,0,0-4.593-4.593H73.941a4.6,4.6,0,0,0-4.593,4.593V71.61A28.527,28.527,0,0,0,65.4,73.665V48.1a.2.2,0,0,1,.2-.2H174.192a.2.2,0,0,1,.2.2v82.324Z" transform="translate(-43.087 -43.087)"/><g transform="translate(31.466 62.878)"><path class="g" d="M91.478,121.537a3.672,3.672,0,0,1-6.358,0l-2.774,1.606a6.877,6.877,0,0,0,11.906,0Z" transform="translate(-82.346 -121.537)"/></g><g transform="translate(9.052 87.603)"><path class="g" d="M62.652,152.386a18.419,18.419,0,0,0-8.271,7.331L58.5,162.2a13.642,13.642,0,0,1,6.122-5.427Z" transform="translate(-54.381 -152.386)"/></g><g transform="translate(6.412 104.432)"><rect class="g" width="4.809" height="20.462"/></g><g transform="translate(26.287 52.548)"><circle class="g" cx="2.379" cy="2.379" r="2.379"/></g><g transform="translate(43.794 52.548)"><circle class="g" cx="2.379" cy="2.379" r="2.379"/></g><g transform="translate(34.174 104.117)"><circle class="g" cx="3.333" cy="3.333" r="3.333"/></g></svg>