<svg xmlns="http://www.w3.org/2000/svg" width="115.671" height="131.014" viewBox="0 0 115.671 131.014">
  <g id="DOCTOR" transform="translate(-43.09 -31.828)">
    <g id="Grupo_1080" data-name="Grupo 1080" transform="translate(45.133 105.156)">
      <g id="Grupo_1079" data-name="Grupo 1079">
        <path id="Trazado_506" data-name="Trazado 506" d="M122.289,149.135a44.561,44.561,0,0,0-14.406-9.652,37.5,37.5,0,0,1-4.591,1.962c-.45.163-.9.313-1.355.456a1.88,1.88,0,0,1-.184.054c-.484.15-.974.286-1.464.415-.232.061-.456.116-.688.17-.279.075-.565.136-.851.2-.218.054-.45.1-.674.143-.014,0-.02.007-.034.007-.061.014-.123.02-.191.034l-.606.116-.048.007c-.245.041-.484.082-.729.116q-.286.051-.572.082l-.293.041-.518.061c-.361.048-.729.082-1.1.109-.266.027-.531.048-.8.061-.245.02-.49.034-.742.041s-.49.02-.742.027c-.32.007-.647.014-.974.014s-.654-.007-.974-.014c-.252-.007-.5-.014-.742-.027s-.5-.02-.742-.041c-.272-.014-.538-.034-.8-.061-.368-.027-.736-.061-1.1-.109l-.518-.061-.293-.041q-.286-.031-.572-.082c-.245-.034-.484-.075-.729-.116-.014,0-.034-.007-.048-.007-.2-.041-.4-.075-.606-.116-.068-.014-.129-.02-.191-.034-.014,0-.02-.007-.034-.007-.225-.048-.456-.089-.674-.143-.286-.061-.572-.123-.851-.2-.232-.055-.456-.109-.688-.17-.49-.123-.981-.266-1.464-.415a1.881,1.881,0,0,1-.184-.054c-.232-.068-.456-.15-.681-.225s-.45-.157-.674-.232a37.5,37.5,0,0,1-4.591-1.962A44.646,44.646,0,0,0,46.09,180.7v14.427h89.27V180.7A44.491,44.491,0,0,0,122.289,149.135Z" transform="translate(-46.09 -139.483)" fill="#e8e6f4"/>
      </g>
    </g>
    <g id="Grupo_1082" data-name="Grupo 1082" transform="translate(50.128 105.156)">
      <g id="Grupo_1081" data-name="Grupo 1081" transform="translate(0)">
        <path id="Trazado_507" data-name="Trazado 507" d="M124.627,149.135a44.561,44.561,0,0,0-14.406-9.652,37.5,37.5,0,0,1-4.591,1.962c-.45.163-.9.313-1.355.456a1.88,1.88,0,0,1-.184.054c-.484.15-.974.286-1.464.415-.232.061-.456.116-.688.17-.279.075-.565.136-.851.2-.218.054-.45.1-.674.143-.014,0-.02.007-.034.007-.061.014-.123.02-.191.034l-.606.116-.048.007c-.245.041-.484.082-.729.116q-.286.051-.572.082l-.293.041-.518.061c-.361.048-.729.082-1.1.109-.266.027-.531.048-.8.061-.245.02-.49.034-.742.041s-.49.02-.742.027c-.32.007-.647.014-.974.014s-.654-.007-.974-.014c-.252-.007-.5-.014-.742-.027s-.5-.02-.742-.041c-.272-.014-.538-.034-.8-.061-.368-.027-.736-.061-1.1-.109l-.518-.061-.293-.041q-.286-.031-.572-.082c-.245-.034-.484-.075-.729-.116-.014,0-.034-.007-.048-.007-.2-.041-.4-.075-.606-.116-.068-.014-.129-.02-.191-.034-.014,0-.02-.007-.034-.007-.225-.048-.456-.089-.674-.143-.286-.061-.572-.123-.851-.2-.232-.055-.456-.109-.688-.17-.49-.123-.981-.266-1.464-.415a1.881,1.881,0,0,1-.184-.054c-.232-.068-.456-.15-.681-.225s-.45-.157-.674-.232a37.5,37.5,0,0,1-4.591-1.962A44.63,44.63,0,0,0,64.271,146.6a44.456,44.456,0,0,0-10.848,29.16v14.427H137.7V180.7A44.491,44.491,0,0,0,124.627,149.135Z" transform="translate(-53.423 -139.483)" fill="#94d3cc"/>
      </g>
    </g>
    <g id="Grupo_1084" data-name="Grupo 1084" transform="translate(52.07 33.871)">
      <g id="Grupo_1083" data-name="Grupo 1083" transform="translate(0 0)">
        <circle id="Elipse_32" data-name="Elipse 32" cx="37.698" cy="37.698" r="37.698" fill="#e8e6f4"/>
      </g>
    </g>
    <g id="Grupo_1086" data-name="Grupo 1086" transform="translate(57.065 33.871)">
      <g id="Grupo_1085" data-name="Grupo 1085" transform="translate(0 0)">
        <path id="Trazado_508" data-name="Trazado 508" d="M96.311,34.827a37.537,37.537,0,0,0-23.874,8.526,37.694,37.694,0,0,0,52.743,53.408A37.692,37.692,0,0,0,96.311,34.827Z" transform="translate(-63.607 -34.827)" fill="#ffddbe"/>
      </g>
    </g>
    <g id="Grupo_1088" data-name="Grupo 1088" transform="translate(55.113 33.871)">
      <g id="Grupo_1087" data-name="Grupo 1087" transform="translate(0 0)">
        <path id="Trazado_509" data-name="Trazado 509" d="M95.4,34.827A37.705,37.705,0,0,0,60.741,57.674h8.29a18.98,18.98,0,0,0,18.98-18.98v-.907A19.887,19.887,0,0,0,107.9,57.674h21.982v-.381A37.7,37.7,0,0,0,95.4,34.827Z" transform="translate(-60.741 -34.827)" fill="#e8e6f4"/>
      </g>
    </g>
    <g id="Grupo_1090" data-name="Grupo 1090" transform="translate(60.108 33.953)">
      <g id="Grupo_1089" data-name="Grupo 1089">
        <path id="Trazado_510" data-name="Trazado 510" d="M73.842,43.413a37.7,37.7,0,0,0-5.768,9.362h8.29a18.891,18.891,0,0,0,10.607-3.239,18.888,18.888,0,0,0,3.377-10.8v-.907a19.835,19.835,0,0,0,1.336,7.167,18.877,18.877,0,0,0,3.62-10.045A37.513,37.513,0,0,0,73.842,43.413Z" transform="translate(-68.074 -34.948)" fill="#8479b9"/>
      </g>
    </g>
    <g id="Grupo_1092" data-name="Grupo 1092" transform="translate(87.483 33.871)">
      <g id="Grupo_1091" data-name="Grupo 1091" transform="translate(0 0)">
        <path id="Trazado_511" data-name="Trazado 511" d="M110.55,34.827c-.768,0-1.529.029-2.286.075a19.889,19.889,0,0,0,19.782,17.834h14.581A37.657,37.657,0,0,0,110.55,34.827Z" transform="translate(-108.264 -34.827)" fill="#8479b9"/>
      </g>
    </g>
    <g id="Grupo_1094" data-name="Grupo 1094" transform="translate(77.201 107.118)">
      <g id="Grupo_1093" data-name="Grupo 1093">
        <path id="Trazado_512" data-name="Trazado 512" d="M116.949,142.819a1.88,1.88,0,0,1-.184.054c-.484.15-.974.286-1.464.415-.232.061-.456.116-.688.17-.279.075-.565.136-.851.2-.218.054-.45.1-.674.143-.014,0-.02.007-.034.007-.061.014-.123.02-.191.034l-.606.116-.048.007c-.245.041-.484.082-.729.116-.191.027-.381.061-.572.082l-.293.041-.518.061c-.361.048-.729.082-1.1.109-.266.027-.531.048-.8.061-.245.02-.49.034-.742.041s-.49.02-.742.027c-.32.007-.647.014-.974.014s-.654-.007-.974-.014c-.252-.007-.5-.014-.742-.027s-.5-.02-.742-.041c-.272-.014-.538-.034-.8-.061-.368-.027-.736-.061-1.1-.109l-.518-.061-.293-.041c-.191-.02-.381-.054-.572-.082-.245-.034-.484-.075-.729-.116-.014,0-.034-.007-.048-.007-.2-.041-.4-.075-.606-.116-.068-.014-.129-.02-.191-.034-.014,0-.02-.007-.034-.007-.225-.048-.456-.089-.674-.143-.286-.061-.572-.123-.851-.2-.232-.054-.456-.109-.688-.17-.49-.123-.981-.266-1.464-.415a1.881,1.881,0,0,1-.184-.054c-.232-.068-.456-.15-.681-.225s-.45-.157-.674-.232l12.581,46.481L118.3,142.363C117.854,142.526,117.4,142.676,116.949,142.819Z" transform="translate(-93.17 -142.363)" fill="#e8e6f4"/>
      </g>
    </g>
    <g id="Grupo_1096" data-name="Grupo 1096" transform="translate(83.997 107.118)">
      <g id="Grupo_1095" data-name="Grupo 1095" transform="translate(0 0)">
        <path id="Trazado_513" data-name="Trazado 513" d="M120.13,142.819a1.88,1.88,0,0,1-.184.054c-.484.15-.974.286-1.464.415-.232.061-.456.116-.688.17-.279.075-.565.136-.851.2-.218.054-.45.1-.674.143-.014,0-.02.007-.034.007-.061.014-.123.02-.191.034l-.606.116-.048.007c-.245.041-.484.082-.729.116-.191.027-.381.061-.572.082l-.293.041-.518.061c-.361.048-.729.082-1.1.109-.266.027-.531.048-.8.061-.245.02-.49.034-.742.041s-.49.02-.742.027c-.32.007-.647.014-.974.014s-.654-.007-.974-.014c-.252-.007-.5-.014-.742-.027s-.5-.02-.742-.041c-.272-.014-.538-.034-.8-.061-.368-.027-.736-.061-1.1-.109l-.518-.061-.293-.041c-.191-.02-.381-.054-.572-.082l-.03,0,8.948,33.06,9.391-34.771C121.035,142.526,120.586,142.676,120.13,142.819Z" transform="translate(-103.146 -142.363)" fill="#eb6b69"/>
      </g>
    </g>
    <g id="Grupo_1098" data-name="Grupo 1098" transform="translate(141.84 101.566)">
      <g id="Grupo_1097" data-name="Grupo 1097" transform="translate(0 0)">
        <circle id="Elipse_33" data-name="Elipse 33" cx="7.439" cy="7.439" r="7.439" fill="#e8e6f4"/>
      </g>
    </g>
    <g id="Grupo_1100" data-name="Grupo 1100" transform="translate(146.835 101.566)">
      <g id="Grupo_1099" data-name="Grupo 1099" transform="translate(0 0)">
        <path id="Trazado_514" data-name="Trazado 514" d="M197.845,134.213a7.448,7.448,0,0,0-2.115.309,7.435,7.435,0,0,0,9.225,9.321,7.442,7.442,0,0,0-7.11-9.631Z" transform="translate(-195.401 -134.213)" fill="#fcc800"/>
      </g>
    </g>
    <g id="Grupo_1102" data-name="Grupo 1102" transform="translate(70.931 67.695)">
      <g id="Grupo_1101" data-name="Grupo 1101" transform="translate(0)">
        <circle id="Elipse_34" data-name="Elipse 34" cx="3.93" cy="3.93" r="3.93" fill="#44294f"/>
      </g>
    </g>
    <g id="Grupo_1104" data-name="Grupo 1104" transform="translate(100.716 67.666)">
      <g id="Grupo_1103" data-name="Grupo 1103" transform="translate(0 0)">
        <circle id="Elipse_35" data-name="Elipse 35" cx="3.93" cy="3.93" r="3.93" fill="#44294f"/>
      </g>
    </g>
    <g id="Grupo_1106" data-name="Grupo 1106" transform="translate(80.555 85.637)">
      <g id="Grupo_1105" data-name="Grupo 1105">
        <path id="Trazado_515" data-name="Trazado 515" d="M112.843,110.827a6.149,6.149,0,0,1-11.071,0l-3.677,1.781a10.235,10.235,0,0,0,18.426,0Z" transform="translate(-98.094 -110.827)" fill="#44294f"/>
      </g>
    </g>
    <g id="Grupo_1108" data-name="Grupo 1108" transform="translate(43.09 31.828)">
      <g id="Grupo_1107" data-name="Grupo 1107">
        <path id="Trazado_516" data-name="Trazado 516" d="M122.777,113.364a47.018,47.018,0,0,0-5.258-4.536,46.473,46.473,0,0,0,18.737-37.063l.009-2.052h-6.8A39.459,39.459,0,0,0,126.3,55.923v-.018l-.174-.4c-.157-.354-.321-.7-.488-1.05-.021-.044-.04-.089-.061-.132a39.746,39.746,0,0,0-13.52-15.648l-.156-.106c-.486-.326-.977-.643-1.477-.947l-.076-.048q-.735-.445-1.489-.857c-.175-.1-.352-.187-.529-.281q-.47-.248-.945-.485c-.233-.116-.466-.23-.7-.341-.272-.129-.548-.251-.824-.373q-.706-.314-1.426-.6c-.215-.085-.429-.173-.645-.255-.316-.12-.635-.233-.956-.345q-.3-.105-.6-.205c-.329-.109-.658-.217-.99-.317-.171-.052-.344-.1-.516-.147q-.882-.253-1.779-.467c-.245-.058-.488-.116-.734-.17q-.448-.1-.9-.183c-.3-.059-.606-.112-.91-.163-.255-.043-.508-.089-.764-.127q-.8-.12-1.616-.206c-.2-.021-.4-.037-.6-.055q-.632-.058-1.27-.1c-.19-.012-.379-.023-.57-.031-.6-.027-1.2-.046-1.808-.046s-1.217.018-1.823.046c-.18.008-.361.02-.541.03q-.678.04-1.351.1c-.169.016-.339.029-.507.047-.583.062-1.164.135-1.741.222-.125.019-.249.042-.375.063q-.7.113-1.4.251-.268.053-.533.11-.714.151-1.42.328c-.1.025-.2.048-.3.074q-.891.231-1.766.5l-.153.05q-.838.263-1.661.563l-.137.05A39.719,39.719,0,0,0,53.238,55.912l-1.223,2.849h.141a39.465,39.465,0,0,0-2.082,10.951h-6.8l.009,2.052a46.473,46.473,0,0,0,18.734,37.061A46.55,46.55,0,0,0,43.09,146.372v16.47h93.357v-16.47A46.373,46.373,0,0,0,122.777,113.364ZM129.444,73.8h2.667c-.059,1.131-.174,2.246-.321,3.353h-2.679C129.266,76.048,129.381,74.93,129.444,73.8Zm-1.129,7.439h2.727a42.562,42.562,0,0,1-17.15,25.158c-.848-.512-1.717-.989-2.6-1.446A39.87,39.87,0,0,0,128.315,81.239ZM77.6,116.43,85,143.749l-9.9-13.316v-6.409l-11.337-11.4c.609-.469,1.229-.924,1.865-1.361A46.258,46.258,0,0,0,77.6,116.43Zm-8-7.587q1.437-.769,2.943-1.439c.969.462,1.955.87,2.949,1.25l.845,3.124A42.07,42.07,0,0,1,69.609,108.843Zm10.528,1.292c.082.02.157.034.225.054.313.082.633.15.913.211.259.061.518.116.729.157.068.014.143.027.266.048l.069.013.708.137.082.007c.193.032.384.064.579.091.224.039.444.07.608.087l.1.012c.079.011.153.025.233.035l.5.061c.236.028.467.052.692.072.159.015.317.029.461.04.3.031.6.054.847.066.283.022.565.039.8.044s.5.021.762.028l.05,0c.185,0,.379,0,.566,0,.151,0,.3.012.449.012s.3-.01.449-.012c.195,0,.383,0,.58,0l.172-.006.295-.01c.184-.006.363-.014.54-.023.125-.005.24-.012.35-.02l.176-.01.4-.028c.163-.012.318-.025.454-.04.17-.013.339-.028.507-.044.232-.022.46-.046.678-.074l.538-.061c.3-.04.6-.084.9-.129l.028,0c.208-.029.412-.063.619-.1l.039-.007.127-.02.7-.129a1.473,1.473,0,0,0,.163-.034c.208-.037.407-.08.591-.122.061-.014.123-.025.181-.039.266-.057.523-.114.747-.172.037-.01.082-.019.116-.029.1-.02.191-.048.293-.068l-.782,2.895a42.014,42.014,0,0,1-17.7,0Zm1.971,7.281a45.807,45.807,0,0,0,15.332,0l-7.658,28.352Zm19.83-.988a46.26,46.26,0,0,0,11.97-5.159c.63.435,1.246.891,1.853,1.36l-11.335,11.4v6.41l-9.857,13.277Zm1.257-4.65.843-3.122c.988-.377,1.975-.786,2.949-1.251,1,.441,1.977.928,2.936,1.443A42.277,42.277,0,0,1,103.194,111.778ZM84.426,36.328c.25-.038.5-.076.752-.108.234-.03.467-.064.7-.089.442-.048.888-.082,1.334-.114.2-.014.4-.035.6-.046.648-.035,1.3-.056,1.954-.056.54,0,1.076.017,1.611.041q.23.01.458.024.672.039,1.337.1l.426.042c.433.046.862.1,1.29.164.221.032.442.067.662.1.292.048.582.1.871.156q.558.106,1.11.23c.262.059.524.117.784.181.276.068.55.141.823.215.2.054.394.111.59.168q.716.208,1.421.448c.182.061.365.121.546.185.27.1.539.2.806.3q.3.115.6.236c.248.1.5.2.742.306q.589.254,1.166.528c.192.091.381.187.571.281q.435.217.865.443c.151.08.3.159.453.242q.657.362,1.3.747c.051.031.1.063.152.095q.645.4,1.272.816l.113.076a35.913,35.913,0,0,1,11.424,12.631H102.269A17.864,17.864,0,0,1,84.425,36.832v-.5ZM74.277,39.459,74.4,39.4c.456-.219.918-.427,1.384-.627.112-.048.225-.093.337-.14q.607-.252,1.225-.484c.178-.066.358-.129.537-.192.358-.127.717-.251,1.08-.366.234-.074.469-.143.7-.213s.447-.129.672-.191v.55A16.955,16.955,0,0,1,63.4,54.674H58.377A35.9,35.9,0,0,1,74.277,39.459ZM56.5,58.762h6.9A21.051,21.051,0,0,0,82.548,46.421a21.957,21.957,0,0,0,19.721,12.341h20.765a35.633,35.633,0,0,1-27.688,48.024l-.356.053q-1.6.236-3.242.328l-.4.018c-.489.021-.98.036-1.474.037h-.213q-.817,0-1.625-.042l-.266-.015q-.75-.042-1.491-.114l-.272-.027A35.63,35.63,0,0,1,56.5,58.762ZM47.426,73.8h2.667c.063,1.131.178,2.248.334,3.353H47.748C47.6,76.046,47.485,74.93,47.426,73.8Zm1.069,7.439h2.727a39.869,39.869,0,0,0,17.018,23.71c-.883.458-1.751.939-2.6,1.447A42.564,42.564,0,0,1,48.495,81.239Zm83.865,77.516H47.177V146.372a42.491,42.491,0,0,1,13.457-31.093l10.376,10.432v6.075l16.9,22.728.084.31h3.569l.091-.339,16.855-22.7v-6.074l10.366-10.422c.339.317.678.633,1.008.964a42.315,42.315,0,0,1,12.473,30.119v12.382Z" transform="translate(-43.09 -31.828)" fill="#44294f"/>
      </g>
    </g>
    <g id="Grupo_1110" data-name="Grupo 1110" transform="translate(56.966 118.84)">
      <g id="Grupo_1109" data-name="Grupo 1109" transform="translate(0 0)">
        <path id="Trazado_517" data-name="Trazado 517" d="M67.4,159.573a39.8,39.8,0,0,0-3.938,4.834l3.361,2.324a35.8,35.8,0,0,1,3.534-4.336Z" transform="translate(-63.462 -159.573)" fill="#44294f"/>
      </g>
    </g>
    <g id="Grupo_1112" data-name="Grupo 1112" transform="translate(49.901 127.734)">
      <g id="Grupo_1111" data-name="Grupo 1111">
        <path id="Trazado_518" data-name="Trazado 518" d="M57.691,172.63a40.083,40.083,0,0,0-4.6,18.638v7.615h4.087v-7.615a35.968,35.968,0,0,1,4.129-16.73Z" transform="translate(-53.09 -172.63)" fill="#44294f"/>
      </g>
    </g>
    <g id="Grupo_1114" data-name="Grupo 1114" transform="translate(139.796 99.523)">
      <g id="Grupo_1113" data-name="Grupo 1113" transform="translate(0 0)">
        <path id="Trazado_519" data-name="Trazado 519" d="M194.549,131.213a9.483,9.483,0,1,0,9.483,9.483A9.493,9.493,0,0,0,194.549,131.213Zm0,14.879a5.4,5.4,0,1,1,5.4-5.4A5.4,5.4,0,0,1,194.549,146.092Z" transform="translate(-185.067 -131.213)" fill="#44294f"/>
      </g>
    </g>
    <g id="Grupo_1116" data-name="Grupo 1116" transform="translate(147.153 106.88)">
      <g id="Grupo_1115" data-name="Grupo 1115">
        <circle id="Elipse_36" data-name="Elipse 36" cx="2.126" cy="2.126" r="2.126" fill="#44294f"/>
      </g>
    </g>
    <g id="Grupo_1118" data-name="Grupo 1118" transform="translate(87.725 118.009)">
      <g id="Grupo_1117" data-name="Grupo 1117" transform="translate(0 0)">
        <path id="Trazado_520" data-name="Trazado 520" d="M170.173,158.833a9.456,9.456,0,0,1-2.04-.227v5.569a27.713,27.713,0,1,1-55.426,0v-5.822c-.678.029-1.358.052-2.043.052s-1.365-.022-2.043-.052v5.822a31.8,31.8,0,1,0,63.6,0V158.6A9.483,9.483,0,0,1,170.173,158.833Z" transform="translate(-108.62 -158.353)" fill="#8d386d"/>
      </g>
    </g>
  </g>
</svg>
