<svg xmlns="http://www.w3.org/2000/svg" width="160.891" height="196.51" viewBox="0 0 160.891 196.51"><defs><style>.a{fill:#e8e6f5;}.b{fill:#94d3cc;}.c{fill:#8479b9;}.d{fill:#eb6b69;}.e{fill:#8d386d;}.f{fill:#44294f;}</style></defs><g transform="translate(-47.555 -29.745)"><rect class="a" width="119.2" height="154.521" transform="translate(50.555 56.517)"/><rect class="b" width="111.219" height="146.541" transform="translate(58.536 56.517)"/><path class="a" d="M144.981,44.631H117.186a1.088,1.088,0,0,1-1.088-1.088V38.688a5.943,5.943,0,1,0-11.886,0v4.855a1.088,1.088,0,0,1-1.088,1.088h-27.8a1.088,1.088,0,0,0-1.088,1.088v21.6A1.088,1.088,0,0,0,75.329,68.4h69.652a1.088,1.088,0,0,0,1.088-1.088v-21.6A1.087,1.087,0,0,0,144.981,44.631Z"/><path class="c" d="M144.981,44.631H117.186a1.088,1.088,0,0,1-1.088-1.088V38.688a5.94,5.94,0,0,0-3.9-5.577l-7.615,3.539a5.91,5.91,0,0,0-.366,2.038v4.855a1.088,1.088,0,0,1-1.088,1.088h-20.9v14.7a1.088,1.088,0,0,0,1.088,1.088h62.76v-14.7A1.089,1.089,0,0,0,144.981,44.631Z"/><path class="d" d="M136.924,100.179h-14.34a2.715,2.715,0,0,1-2.715-2.715V83.124a2.715,2.715,0,0,0-2.715-2.715h-14.34a2.715,2.715,0,0,0-2.715,2.715v14.34a2.715,2.715,0,0,1-2.715,2.715H83.044a2.715,2.715,0,0,0-2.715,2.715v14.34a2.715,2.715,0,0,0,2.715,2.715h14.34a2.715,2.715,0,0,1,2.715,2.715V137a2.715,2.715,0,0,0,2.715,2.715h14.34A2.715,2.715,0,0,0,119.869,137v-14.34a2.715,2.715,0,0,1,2.715-2.715h14.34a2.715,2.715,0,0,0,2.715-2.715v-14.34A2.715,2.715,0,0,0,136.924,100.179Z"/><path class="a" d="M136.924,100.179h-14.34a2.715,2.715,0,0,1-2.715-2.715V83.124a2.715,2.715,0,0,0-2.715-2.715h-14.34a2.715,2.715,0,0,0-2.715,2.715v14.34a2.715,2.715,0,0,1-2.715,2.715H83.044a2.715,2.715,0,0,0-2.715,2.715v14.34a2.715,2.715,0,0,0,2.715,2.715h14.34a2.715,2.715,0,0,1,2.715,2.715V137a2.715,2.715,0,0,0,2.715,2.715h14.34A2.715,2.715,0,0,0,119.869,137v-14.34a2.715,2.715,0,0,1,2.715-2.715h14.34a2.715,2.715,0,0,0,2.715-2.715v-14.34A2.715,2.715,0,0,0,136.924,100.179Z"/><path class="d" d="M136.924,100.179h-14.34a2.715,2.715,0,0,1-2.715-2.715V83.124a2.715,2.715,0,0,0-2.715-2.715h-16.88L100.1,92.2v5.266a2.715,2.715,0,0,1-2.715,2.715H88.308v9.075a2.715,2.715,0,0,0,2.715,2.715h14.34a2.715,2.715,0,0,1,2.715,2.715v14.34a2.715,2.715,0,0,0,2.715,2.715h9.075v-9.075a2.715,2.715,0,0,1,2.715-2.715h5.266l11.79-.178V102.894A2.715,2.715,0,0,0,136.924,100.179Z"/><path class="a" d="M169.592,127.75,133.83,139.636v23.772c0,39.942,35.762,59.431,35.762,59.431s35.853-19.489,35.853-59.431V139.636Z"/><path class="e" d="M169.6,139.216l-24.883,8.271v15.922c0,24.554,16.238,39.949,24.888,46.408,8.671-6.455,24.962-21.852,24.962-46.408V147.493Z"/><path class="f" d="M136.925,97.179H122.869V83.124a5.723,5.723,0,0,0-5.716-5.716h-14.34A5.722,5.722,0,0,0,97.1,83.124V97.18H83.042a5.721,5.721,0,0,0-5.715,5.715v14.341a5.722,5.722,0,0,0,5.715,5.715H97.1v14.056a5.723,5.723,0,0,0,5.715,5.716h14.34a5.723,5.723,0,0,0,5.716-5.716V122.95h14.056a5.721,5.721,0,0,0,5.715-5.715V102.894A5.722,5.722,0,0,0,136.925,97.179Zm-.286,19.771H122.583a5.722,5.722,0,0,0-5.715,5.716v14.056H103.1V122.666a5.723,5.723,0,0,0-5.715-5.716H83.326V103.179H97.382a5.722,5.722,0,0,0,5.715-5.716V83.408h13.771V97.464a5.722,5.722,0,0,0,5.715,5.716h14.056v13.77Z"/><path class="f" d="M184.675,153.032l-16.947,33.115-8.971-10.554-5.508,10.283,16.308,8.2,23.767-34.123Z"/><path class="f" d="M172.756,125.638V53.517H149.07v-7.8a4.093,4.093,0,0,0-4.089-4.088H119.1V38.688a8.943,8.943,0,1,0-17.886,0v2.943H75.329a4.093,4.093,0,0,0-4.088,4.088v7.8H47.555V214.038H153.2a76.206,76.206,0,0,0,14.956,11.435l1.434.782,1.435-.78c1.528-.83,37.421-20.814,37.421-62.066V137.47ZM77.24,47.631h25.883a4.093,4.093,0,0,0,4.088-4.089V38.688a2.943,2.943,0,1,1,5.886,0v4.854a4.093,4.093,0,0,0,4.088,4.089h25.884V65.4H77.24ZM53.555,208.039V59.517H59.61v20.8h6v-20.8h5.63v7.8A4.093,4.093,0,0,0,75.328,71.4H144.98a4.093,4.093,0,0,0,4.089-4.089v-7.8h5.63V92.175h6V59.517h6.056v66.014l-35.926,11.941V154.3H62.61v6h68.22v3.106a68.515,68.515,0,0,0,.571,8.724H62.61v6h69.822a65.982,65.982,0,0,0,3.839,11.829H62.61v6h76.6a74.47,74.47,0,0,0,8.369,12.077H53.555Zm148.89-44.63c0,33.15-26.357,51.833-32.854,55.933-6.5-4.093-32.761-22.705-32.761-55.933V141.8l32.763-10.89L202.446,141.8v21.607Z"/><rect class="f" width="6" height="11.957" transform="translate(154.7 103.992)"/><rect class="f" width="6" height="47.545" transform="translate(59.61 92.176)"/></g></svg>