<svg xmlns="http://www.w3.org/2000/svg" width="198.032" height="259" viewBox="0 0 198.032 259">
  <g id="Logo" transform="translate(-918.004 -466)">
    <g id="Grupo_1" data-name="Grupo 1" transform="translate(918.004 466)">
      <path id="Trazado_1" data-name="Trazado 1" d="M104.011,0c11.268,0,20.359,9.769,30.718,13.208,11.448,3.8,23.952,1.757,33.419,9.324,6.971,5.572,6.825,16.676,12.242,24.05,6.592,8.974,18.33,14.766,21.748,25.853,2.927,9.491-3.281,19.664-3.281,30.208,0,10.454,6.236,20.542,3.259,30.245-3.2,10.428-15.381,15.577-21.726,24.5-5.9,8.3-5.926,20.572-14.186,26.888-8.366,6.4-21.229,4.19-31.477,7.818-10.532,3.731-18.7,13.193-30.715,13.193-10.918,0-19.638-9.97-29.677-13.192-11.448-3.674-23.977-1.152-33.446-8.536-7.645-5.961-7.923-18.155-13.7-26.17C20.644,148.3,8.879,142.968,5.565,131.783c-2.722-9.187,3.666-18.991,3.666-29.138,0-10.413-6.311-20.463-3.352-30.141,3.025-9.89,15.429-17.343,21.314-25.92,5.744-8.372,5.037-17.967,13.14-24.408,9.067-7.212,22.587-5.1,34-8.966C84.45,9.786,92.5,0,104.011,0Z" transform="translate(-4.89)" fill="#5e17eb"/>
      <circle id="Elipse_4" data-name="Elipse 4" cx="63.747" cy="63.747" r="63.747" transform="translate(35.374 38.896)" fill="#310092"/>
      <path id="Trazado_2" data-name="Trazado 2" d="M30.5,0c3.467,0,6.267,3.006,9.45,4.063,3.522,1.169,7.369.54,10.282,2.869,2.147,1.711,2.1,5.131,3.766,7.4,2.028,2.761,5.639,4.544,6.691,7.954.9,2.92-1.008,6.051-1.008,9.292,0,3.216,1.918,6.32,1,9.3C59.7,44.093,55.948,45.677,54,48.422c-1.816,2.553-1.823,6.329-4.364,8.273-2.574,1.968-6.531,1.289-9.683,2.405-3.241,1.147-5.753,4.059-9.45,4.059-3.36,0-6.042-3.068-9.131-4.059-3.522-1.13-7.377-.354-10.29-2.626-2.351-1.834-2.438-5.586-4.215-8.052-2.017-2.8-5.634-4.436-6.654-7.878C-.63,37.718,1.336,34.7,1.336,31.58c0-3.2-1.945-6.3-1.031-9.273.93-3.043,4.748-5.336,6.558-7.972,1.767-2.576,1.549-5.528,4.042-7.51C13.7,4.6,17.854,5.251,21.365,4.063,24.478,3.011,26.956,0,30.5,0Z" transform="translate(61.245 80.068) rotate(-15.009)" fill="#1c0054"/>
      <ellipse id="Elipse_5" data-name="Elipse 5" cx="11.885" cy="17.647" rx="11.885" ry="17.647" transform="matrix(0.629, 0.777, -0.777, 0.629, 85.505, 62.685)" fill="#fff" opacity="0.3"/>
    </g>
  </g>
</svg>
