<svg xmlns="http://www.w3.org/2000/svg" width="134.32" height="123.553" viewBox="0 0 134.32 123.553"><defs><style>.a{fill:#e8e6f4;}.b{fill:#8d386d;}.c{fill:#eb6b69;}.d{fill:#44294f;}</style></defs><g transform="translate(-44.3 -51.011)"><g transform="translate(106.285 53.418)"><g transform="translate(0)"><path class="a" d="M128.056,54.011h-3.082a3.424,3.424,0,0,0-3.424,3.424v72.59a3.424,3.424,0,0,0,3.424,3.424h3.082a3.424,3.424,0,0,0,3.424-3.424V57.435A3.423,3.423,0,0,0,128.056,54.011Z" transform="translate(-121.55 -54.011)"/></g></g><g transform="translate(111.25 53.418)"><path class="b" d="M129.278,54.011h-1.541V125.63a3.424,3.424,0,0,0,3.424,3.424H132.7V57.435A3.423,3.423,0,0,0,129.278,54.011Z" transform="translate(-127.737 -54.011)"/></g><g transform="translate(46.706 85.182)"><g transform="translate(0 0)"><path class="a" d="M107.3,109.846,95.356,121.835l2.43-21.127A6.848,6.848,0,0,0,88.943,93.9L78.868,96.977a34.239,34.239,0,0,0-23.4,25.179l-7.645,33.726a20.544,20.544,0,0,0,25.8,24.262l11.188-3.267a6.848,6.848,0,0,0,4.883-5.791l3.71-32.252a3.425,3.425,0,0,1,.981-2.03L107.3,123.887Z" transform="translate(-47.299 -93.598)"/></g></g><g transform="translate(116.215 84.764)"><path class="a" d="M193.4,155.36l-7.645-33.726a34.239,34.239,0,0,0-23.4-25.179l-10.076-3.076a6.848,6.848,0,0,0-8.842,6.807l2.43,21.127-11.941-11.989,0,14.04,12.917,12.917a3.425,3.425,0,0,1,.981,2.03l3.71,32.252a6.847,6.847,0,0,0,4.883,5.791l11.188,3.267A20.544,20.544,0,0,0,193.4,155.36Z" transform="translate(-133.925 -93.076)"/></g><g transform="translate(55.684 85.193)"><path class="c" d="M109.509,109.848l-2.134,2.142-9.808,9.847L100,100.71a6.843,6.843,0,0,0-7.709-7.041l-2.231.681a34.241,34.241,0,0,0-23.4,25.179l-7.645,33.726a20.544,20.544,0,0,0,25.8,24.262l2.284-.668a6.846,6.846,0,0,0,4.809-5.763l3.71-32.252a3.425,3.425,0,0,1,.981-2.03l12.917-12.917Z" transform="translate(-58.488 -93.611)"/></g><g transform="translate(133.486 84.891)"><path class="c" d="M197.653,155.392l-7.645-33.726a34.239,34.239,0,0,0-23.4-25.179l-10.076-3.076a7.186,7.186,0,0,0-.733-.176,6.851,6.851,0,0,0-.348,2.435l8.095,70.377a6.847,6.847,0,0,0,4.883,5.791l11.188,3.267a20.309,20.309,0,0,0,11.967-.114A20.356,20.356,0,0,0,197.653,155.392Z" transform="translate(-155.449 -93.235)"/></g><g transform="translate(103.878 51.011)"><path class="d" d="M127.463,51.011h-3.082a5.838,5.838,0,0,0-5.831,5.831v72.59a5.838,5.838,0,0,0,5.831,5.832h3.082a5.838,5.838,0,0,0,5.831-5.832V56.842A5.837,5.837,0,0,0,127.463,51.011Zm1.017,78.421a1.018,1.018,0,0,1-1.017,1.017h-3.082a1.018,1.018,0,0,1-1.017-1.017V56.842a1.017,1.017,0,0,1,1.017-1.017h3.082a1.017,1.017,0,0,1,1.017,1.017Z" transform="translate(-118.55 -51.011)"/></g><g transform="translate(114.511 82.352)"><g transform="translate(0)"><path class="d" d="M195.328,154.235l-7.645-33.726A36.726,36.726,0,0,0,162.64,93.559l-10.076-3.076a9.255,9.255,0,0,0-11.951,9.2l2.444,21.312,4.783-.55-2.418-21.026a4.441,4.441,0,0,1,5.736-4.331l10.076,3.076a31.9,31.9,0,0,1,21.753,23.409l7.645,33.726a18.137,18.137,0,0,1-22.774,21.419l-11.187-3.267a4.432,4.432,0,0,1-3.167-3.756l-3.711-32.252a5.851,5.851,0,0,0-1.67-3.457l-12.917-12.918-3.4,3.4,12.918,12.918a1.02,1.02,0,0,1,.29.6l3.711,32.252a9.237,9.237,0,0,0,6.6,7.827l11.187,3.267a23.262,23.262,0,0,0,6.523.941,22.983,22.983,0,0,0,22.3-28.044Z" transform="translate(-131.802 -90.071)"/></g></g><g transform="translate(135.348 91.809)"><path class="d" d="M184.8,124.654a28.415,28.415,0,0,0-7.489-13.67l-3.429,3.38a23.6,23.6,0,0,1,6.223,11.355l4,17.662,4.7-1.064Zm-19.427-20.906-6.2-1.891-1.406,4.6,6.2,1.891.695-2.276-.694,2.276a23.5,23.5,0,0,1,3.6,1.431c.574.286,1.143.6,1.693.93l2.488-4.122c-.661-.4-1.346-.775-2.038-1.119A28.519,28.519,0,0,0,165.373,103.747Z" transform="translate(-157.77 -101.856)"/></g><g transform="translate(114.514 99.311)"><g transform="translate(0 0)"><rect class="d" width="4.814" height="52.056" transform="translate(0 3.404) rotate(-45)"/></g></g><g transform="translate(127.688 105.67)"><g transform="translate(0)"><rect class="d" width="23.303" height="4.814" transform="translate(0 4.966) rotate(-12.304)"/></g></g><g transform="translate(44.3 82.354)"><path class="d" d="M105,121.069,92.088,133.987a5.849,5.849,0,0,0-1.67,3.457L86.707,169.7a4.432,4.432,0,0,1-3.167,3.755l-11.187,3.267A18.137,18.137,0,0,1,49.579,155.3l7.645-33.726A31.9,31.9,0,0,1,78.977,98.164l10.076-3.076a4.441,4.441,0,0,1,5.736,4.331l-2.418,21.026,4.783.55,2.43-21.127.014-.185a9.255,9.255,0,0,0-11.951-9.2L77.571,93.561A36.726,36.726,0,0,0,52.529,120.51l-7.645,33.726a22.983,22.983,0,0,0,22.3,28.046,23.266,23.266,0,0,0,6.523-.941l11.187-3.268a9.237,9.237,0,0,0,6.6-7.827L95.2,137.994a1.014,1.014,0,0,1,.291-.6l12.917-12.918Z" transform="translate(-44.3 -90.072)"/></g><g transform="translate(52.899 114.607)"><g transform="translate(0 0)"><path class="d" d="M67.357,131.332l-4.7-1.064-7.645,33.726,4.7,1.064Zm4.81,45.441a9.971,9.971,0,0,1-11.814-5.385l-4.371,2.019a14.746,14.746,0,0,0,3.309,4.578l1.664-1.769-1.664,1.769A14.629,14.629,0,0,0,69.338,182a14.891,14.891,0,0,0,4.178-.6Z" transform="translate(-55.016 -130.268)"/></g></g><g transform="translate(68.192 99.31)"><g transform="translate(0)"><rect class="d" width="52.056" height="4.814" transform="translate(0 36.809) rotate(-45)"/></g></g><g transform="translate(71.439 105.687)"><rect class="d" width="4.814" height="23.303" transform="translate(0 4.704) rotate(-77.696)"/></g><g transform="translate(158.007 139.893)"><circle class="b" cx="2.893" cy="2.893" r="2.893"/></g><g transform="translate(73.511 154.788)"><g transform="translate(0)"><circle class="b" cx="2.893" cy="2.893" r="2.893"/></g></g><g transform="translate(148.077 149.823)"><circle class="b" cx="2.893" cy="2.893" r="2.893"/></g><g transform="translate(64.11 144.859)"><g transform="translate(0)"><circle class="b" cx="2.893" cy="2.893" r="2.893"/></g></g><g transform="translate(159.454 156.235)"><circle class="b" cx="1.446" cy="1.446" r="1.446"/></g><g transform="translate(80.015 146.305)"><circle class="b" cx="1.446" cy="1.446" r="1.446"/></g></g></svg>