<svg xmlns="http://www.w3.org/2000/svg" width="145.258" height="199.189" viewBox="0 0 145.258 199.189">
  <g id="NURSE" transform="translate(-55.371 -28.405)">
    <g id="Grupo_2252" data-name="Grupo 2252">
      <g id="Grupo_2251" data-name="Grupo 2251">
        <path id="Trazado_945" data-name="Trazado 945" d="M195.841,151.841,175.448,102.8h-94.9L60.159,151.841a23.232,23.232,0,0,0,21.452,32.152H174.39A23.232,23.232,0,0,0,195.841,151.841Z" fill="#e8e6f4"/>
      </g>
    </g>
    <g id="Grupo_2254" data-name="Grupo 2254">
      <g id="Grupo_2253" data-name="Grupo 2253">
        <path id="Trazado_946" data-name="Trazado 946" d="M195.841,151.841,175.448,102.8H84.72L67.128,145.1A23.233,23.233,0,0,0,88.58,177.257h92.779a23.018,23.018,0,0,0,12.278-3.491A23.062,23.062,0,0,0,195.841,151.841Z" fill="#fcc800"/>
      </g>
    </g>
    <g id="Grupo_2256" data-name="Grupo 2256">
      <g id="Grupo_2255" data-name="Grupo 2255">
        <circle id="Elipse_70" data-name="Elipse 70" cx="51.433" cy="51.433" r="51.433" transform="translate(76.553 71.626)" fill="#e8e6f4"/>
      </g>
    </g>
    <g id="Grupo_2258" data-name="Grupo 2258">
      <g id="Grupo_2257" data-name="Grupo 2257">
        <path id="Trazado_947" data-name="Trazado 947" d="M127.986,71.625A51.2,51.2,0,0,0,95.9,82.875,51.419,51.419,0,0,0,167.042,156.5a51.418,51.418,0,0,0-39.056-84.879Z" fill="#ffddbe"/>
      </g>
    </g>
    <g id="Grupo_2260" data-name="Grupo 2260">
      <g id="Grupo_2259" data-name="Grupo 2259">
        <path id="Trazado_948" data-name="Trazado 948" d="M127.986,71.625A51.441,51.441,0,0,0,80.7,102.8H92.015A25.9,25.9,0,0,0,117.91,76.9V75.663a27.132,27.132,0,0,0,27.133,27.132h29.992v-.519A51.439,51.439,0,0,0,127.986,71.625Z" fill="#e8e6f4"/>
      </g>
    </g>
    <g id="Grupo_2262" data-name="Grupo 2262">
      <g id="Grupo_2261" data-name="Grupo 2261">
        <path id="Trazado_949" data-name="Trazado 949" d="M127.986,71.625c-1,0-1.983.037-2.965.093a27.136,27.136,0,0,0,26.99,24.34H171.75A51.38,51.38,0,0,0,127.986,71.625Z" fill="#fcc800"/>
      </g>
    </g>
    <g id="Grupo_2264" data-name="Grupo 2264">
      <g id="Grupo_2263" data-name="Grupo 2263">
        <path id="Trazado_950" data-name="Trazado 950" d="M95.9,82.869a51.464,51.464,0,0,0-8.229,13.19H98.984a25.766,25.766,0,0,0,14.187-4.236A25.765,25.765,0,0,0,117.908,76.9V75.664a27.045,27.045,0,0,0,1.879,9.918,25.766,25.766,0,0,0,5.04-13.853A51.171,51.171,0,0,0,95.9,82.869Z" fill="#fcc800"/>
      </g>
    </g>
    <g id="Grupo_2266" data-name="Grupo 2266">
      <g id="Grupo_2265" data-name="Grupo 2265">
        <path id="Trazado_951" data-name="Trazado 951" d="M171.049,181.53c-1.022-1.022-2.082-2.007-3.169-2.955a60.737,60.737,0,0,0-15.947-9.99,48.859,48.859,0,0,1-6.8,2.974c-.613.223-1.227.428-1.849.623-.084.028-.167.056-.251.075-.66.2-1.329.39-2,.567-.316.083-.623.158-.939.232-.381.1-.771.186-1.162.27-.316.075-.641.14-.966.205-.084.019-.167.028-.26.046l-.892.167c-.716.121-1.44.232-2.174.325-.232.028-.465.056-.706.083-.493.065-.994.112-1.5.149-.362.037-.725.065-1.1.083-.669.046-1.347.074-2.026.093-.446.009-.883.019-1.329.019s-.883-.009-1.329-.019c-.678-.019-1.357-.046-2.026-.093-.372-.019-.734-.046-1.1-.083-.5-.037-1-.084-1.5-.149l-.706-.083c-.734-.093-1.459-.205-2.175-.325l-.892-.167c-.093-.019-.177-.028-.26-.046-.325-.065-.651-.13-.966-.205-.39-.083-.781-.167-1.162-.27-.316-.074-.623-.148-.939-.232-.669-.167-1.338-.363-2-.567a2.39,2.39,0,0,1-.251-.075c-.623-.2-1.236-.409-1.849-.623a48.689,48.689,0,0,1-6.8-2.974,60.95,60.95,0,0,0-36.949,56.009H188.883A60.7,60.7,0,0,0,171.049,181.53Z" fill="#e8e6f4"/>
      </g>
    </g>
    <g id="Grupo_2268" data-name="Grupo 2268">
      <g id="Grupo_2267" data-name="Grupo 2267">
        <path id="Trazado_952" data-name="Trazado 952" d="M171.049,181.53c-1.022-1.022-2.082-2.007-3.169-2.955a60.737,60.737,0,0,0-15.947-9.99,48.859,48.859,0,0,1-6.8,2.974c-.613.223-1.227.428-1.849.623-.084.028-.167.056-.251.075-.66.2-1.329.39-2,.567-.316.083-.623.158-.939.232-.381.1-.771.186-1.162.27-.316.075-.641.14-.966.205-.084.019-.167.028-.26.046l-.892.167c-.716.121-1.44.232-2.174.325-.232.028-.465.056-.706.083-.493.065-.994.112-1.5.149-.362.037-.725.065-1.1.083-.669.046-1.347.074-2.026.093-.446.009-.883.019-1.329.019s-.883-.009-1.329-.019c-.678-.019-1.357-.046-2.026-.093-.372-.019-.734-.046-1.1-.083-.5-.037-1-.084-1.5-.149l-.706-.083c-.734-.093-1.459-.205-2.175-.325l-.892-.167c-.093-.019-.177-.028-.26-.046-.325-.065-.651-.13-.966-.205-.39-.083-.781-.167-1.162-.27-.316-.074-.623-.148-.939-.232-.669-.167-1.338-.363-2-.567a2.39,2.39,0,0,1-.251-.075c-.623-.2-1.236-.409-1.849-.623a48.689,48.689,0,0,1-6.8-2.974,60.882,60.882,0,0,0-14.692,8.945,60.655,60.655,0,0,0-15.287,40.326H188.5A60.7,60.7,0,0,0,171.049,181.53Z" fill="#8479b9"/>
      </g>
    </g>
    <g id="Grupo_2270" data-name="Grupo 2270">
      <g id="Grupo_2269" data-name="Grupo 2269">
        <path id="Trazado_953" data-name="Trazado 953" d="M143.282,172.181c-.084.028-.167.056-.251.075-.66.2-1.329.39-2,.567-.316.083-.623.158-.939.232-.381.1-.771.186-1.162.27-.316.075-.641.14-.966.205-.084.019-.167.028-.26.046l-.892.167c-.716.121-1.44.232-2.174.325-.232.028-.465.056-.706.083-.493.065-.994.112-1.5.149-.362.037-.725.065-1.1.083-.669.046-1.347.074-2.026.093-.437.009-.883.019-1.329.019s-.892-.009-1.329-.019c-.678-.019-1.357-.046-2.026-.093-.372-.019-.734-.046-1.1-.083-.5-.037-1-.084-1.5-.149l-.706-.083c-.734-.093-1.459-.205-2.175-.325l-.892-.167c-.093-.019-.177-.028-.26-.046-.325-.065-.651-.13-.966-.205-.39-.083-.781-.167-1.162-.27-.316-.074-.623-.148-.939-.232-.669-.167-1.338-.363-2-.567a2.39,2.39,0,0,1-.251-.075c-.623-.2-1.236-.409-1.849-.623l17.146,42.794,17.146-42.794C144.518,171.782,143.9,171.986,143.282,172.181Z" fill="#e8e6f4"/>
      </g>
    </g>
    <g id="Grupo_2272" data-name="Grupo 2272">
      <g id="Grupo_2271" data-name="Grupo 2271">
        <path id="Trazado_954" data-name="Trazado 954" d="M143.282,172.181c-.084.028-.167.056-.251.075-.66.2-1.329.39-2,.567-.316.083-.623.158-.939.232-.381.1-.771.186-1.162.27-.316.075-.641.14-.966.205-.084.019-.167.028-.26.046l-.892.167c-.716.121-1.44.232-2.174.325-.232.028-.465.056-.706.083-.493.065-.994.112-1.5.149-.362.037-.725.065-1.1.083-.669.046-1.347.074-2.026.093-.437.009-.883.019-1.329.019s-.892-.009-1.329-.019c-.678-.019-1.357-.046-2.026-.093-.372-.019-.734-.046-1.1-.083-.5-.037-1-.084-1.5-.149l-.515-.061,11.3,28.2,12.311-30.728C144.518,171.782,143.9,171.986,143.282,172.181Z" fill="#ffddbe"/>
      </g>
    </g>
    <g id="Grupo_2274" data-name="Grupo 2274">
      <g id="Grupo_2273" data-name="Grupo 2273">
        <path id="Trazado_955" data-name="Trazado 955" d="M161.487,48.222l-29.115-15.7a9.293,9.293,0,0,0-8.828,0l-29.087,15.7A9.3,9.3,0,0,0,90.145,59.6l7.908,21.625a51.476,51.476,0,0,1,59.819-.038L165.8,59.614A9.3,9.3,0,0,0,161.487,48.222Z" fill="#e8e6f4"/>
      </g>
    </g>
    <g id="Grupo_2276" data-name="Grupo 2276">
      <g id="Grupo_2275" data-name="Grupo 2275">
        <path id="Trazado_956" data-name="Trazado 956" d="M138.915,49.266h-5.682a.842.842,0,0,1-.842-.842V42.742a.842.842,0,0,0-.842-.842h-7.126a.842.842,0,0,0-.842.842v5.682a.842.842,0,0,1-.842.842h-5.682a.842.842,0,0,0-.842.842v7.125a.842.842,0,0,0,.842.842h5.682a.842.842,0,0,1,.842.842V64.6a.842.842,0,0,0,.842.842h7.126a.842.842,0,0,0,.842-.842V58.917a.842.842,0,0,1,.842-.842h5.682a.842.842,0,0,0,.842-.842V50.108A.842.842,0,0,0,138.915,49.266Z" fill="#eb6b69"/>
      </g>
    </g>
    <g id="Grupo_2278" data-name="Grupo 2278">
      <g id="Grupo_2277" data-name="Grupo 2277">
        <path id="Trazado_957" data-name="Trazado 957" d="M198.611,150.688,177.449,99.8h-.261c-.021-.044-.041-.09-.062-.134-.036-.075-.069-.152-.1-.227a54.412,54.412,0,0,0-15.572-19.286l7.166-19.5a12.352,12.352,0,0,0-5.7-15.071L133.8,29.885a12.253,12.253,0,0,0-11.677,0L93.031,45.592a12.364,12.364,0,0,0-5.7,15.035L94.47,80.16A54.4,54.4,0,0,0,78.766,99.8H78.55L57.388,150.689a26.233,26.233,0,0,0,19.281,35.836,63.888,63.888,0,0,0-12.581,38.069v3H191.882v-3a63.425,63.425,0,0,0-12.563-38.072,26.229,26.229,0,0,0,19.292-35.834ZM170.453,99.8H145.041a24.159,24.159,0,0,1-24.132-24.133v-.512c.428-.063.859-.117,1.29-.169.247-.029.492-.068.741-.094l.085-.008c.6-.061,1.194-.1,1.794-.14.152-.01.3-.026.456-.035.1-.006.2-.013.3-.018.8-.04,1.6-.063,2.408-.063.734,0,1.463.023,2.19.056q.306.014.611.032.942.054,1.875.143c.072.007.144.011.215.019l.092.009c.087.009.174.022.261.032q.856.093,1.7.217c.295.043.589.088.883.137.416.068.829.144,1.241.222q.729.14,1.451.3c.355.079.71.159,1.063.246s.73.186,1.094.284c.282.077.563.158.843.24q.913.267,1.813.568c.277.093.556.184.831.282.356.126.71.259,1.063.394.293.112.583.228.873.345.4.163.807.33,1.206.5.455.2.908.4,1.356.614.256.121.509.247.763.372q.635.313,1.258.645c.174.092.35.182.523.277q.906.5,1.789,1.03c.091.055.18.112.27.167.6.366,1.186.742,1.765,1.132l.044.029A48.773,48.773,0,0,1,170.453,99.8ZM92.963,58.568a6.33,6.33,0,0,1,2.919-7.7L124.97,35.165a6.272,6.272,0,0,1,5.978,0l29.115,15.695a6.325,6.325,0,0,1,2.92,7.716l-6.62,18.012a53.976,53.976,0,0,0-25.411-7.88l-.34-.018c-.873-.042-1.748-.07-2.628-.07s-1.755.028-2.628.07q-.171.007-.342.018a53.96,53.96,0,0,0-25.452,7.909Zm13.983,20.871.135-.064q.93-.447,1.884-.853c.143-.062.287-.122.431-.182q.822-.343,1.66-.656c.231-.086.464-.169.7-.252q.729-.259,1.467-.5c.305-.1.611-.19.918-.282.256-.076.513-.147.771-.219V76.9a22.922,22.922,0,0,1-22.9,22.9h-6.5A48.773,48.773,0,0,1,106.946,79.439ZM82.744,105.8h9.271a28.931,28.931,0,0,0,26.127-16.561,30.167,30.167,0,0,0,26.9,16.561h28.187a48.406,48.406,0,0,1-28.6,62.749l-.016.006a48.128,48.128,0,0,1-9.1,2.354c-.12.019-.24.036-.361.054q-2.178.324-4.415.45c-.213.012-.423.021-.635.03-.535.023-1.074.035-1.614.041-.333,0-.667,0-1,0-.65-.006-1.3-.017-1.942-.049l-.114-.006c-.729-.038-1.452-.1-2.172-.166-.128-.011-.26-.025-.392-.039A48.4,48.4,0,0,1,82.744,105.8Zm33.167,70.351.441.1c.35.082.71.154,1,.212.1.022.2.04.359.067l.943.176c.266.045.545.08.814.122.187.03.375.056.563.084.313.045.616.1.935.139l.674.08c.55.073,1.11.125,1.586.159.414.042.828.074,1.2.093.152.011.307.012.459.021.251.014.5.024.754.034.313.014.622.035.936.043l.1,0h.058c.238.005.474,0,.711,0,.18,0,.358.014.539.014s.358-.012.539-.014c.236,0,.472.005.71,0l.163,0c.455-.012.9-.031,1.342-.053l.112-.006c.215-.011.434-.021.639-.036.424-.021.838-.054,1.168-.088.56-.042,1.12-.094,1.624-.161l.733-.087c.776-.1,1.542-.216,2.351-.353l.949-.178c.1-.017.2-.034.235-.043.36-.071.72-.144,1.07-.226l.44-.1-12.074,30.137Zm6.556,32.5-14.286-6.309v-7.8L92.543,178.816a57.751,57.751,0,0,1,11.4-6.909c1.5.744,3.035,1.387,4.574,1.972l.026.01Zm24.962-34.757.033-.013c1.536-.584,3.067-1.227,4.567-1.97a57.678,57.678,0,0,1,11.392,6.9l-15.649,15.732v7.8l-14.267,6.3Zm-82.649-1.9a19.932,19.932,0,0,1-1.851-19l10.786-25.939a54.29,54.29,0,0,0,.863,6.5l-8.609,20.7,5.54,2.3,5.744-13.813a54.728,54.728,0,0,0,20.5,25.55,63.408,63.408,0,0,0-16.464,12.687A19.919,19.919,0,0,1,64.78,171.989Zm121.027,49.6H70.166a57.9,57.9,0,0,1,17.816-38.855l14.2,14.276v9.232l25.805,11.394,25.786-11.4v-9.231l14.205-14.282c.32.306.644.611.952.918A57.483,57.483,0,0,1,185.807,221.594Zm5.413-49.6a19.919,19.919,0,0,1-16.548,8.995c-.495-.529-.986-1.061-1.5-1.576-1.05-1.05-2.167-2.092-3.323-3.1a63.637,63.637,0,0,0-11.626-8.014,54.452,54.452,0,0,0,24.039-41.3l10.81,26A19.936,19.936,0,0,1,191.22,171.99Z" fill="#44294f"/>
      </g>
    </g>
    <g id="Grupo_2280" data-name="Grupo 2280">
      <g id="Grupo_2279" data-name="Grupo 2279">
        <path id="Trazado_958" data-name="Trazado 958" d="M72.511,166.832l-4.991,3.33A16.688,16.688,0,0,0,81.611,177.7v-6A10.775,10.775,0,0,1,72.511,166.832Z" fill="#44294f"/>
      </g>
    </g>
    <g id="Grupo_2282" data-name="Grupo 2282">
      <g id="Grupo_2281" data-name="Grupo 2281">
        <path id="Trazado_959" data-name="Trazado 959" d="M170.957,190.886l-4.714,3.711a48.383,48.383,0,0,1,9.565,21.238l5.9-1.068A54.364,54.364,0,0,0,170.957,190.886Z" fill="#44294f"/>
      </g>
    </g>
    <g id="Grupo_2284" data-name="Grupo 2284">
      <g id="Grupo_2283" data-name="Grupo 2283">
        <circle id="Elipse_71" data-name="Elipse 71" cx="5.362" cy="5.362" r="5.362" transform="translate(102.285 117.773)" fill="#44294f"/>
      </g>
    </g>
    <g id="Grupo_2286" data-name="Grupo 2286">
      <g id="Grupo_2285" data-name="Grupo 2285">
        <circle id="Elipse_72" data-name="Elipse 72" cx="5.362" cy="5.362" r="5.362" transform="translate(142.923 117.734)" fill="#44294f"/>
      </g>
    </g>
    <g id="Grupo_2288" data-name="Grupo 2288">
      <g id="Grupo_2287" data-name="Grupo 2287">
        <path id="Trazado_960" data-name="Trazado 960" d="M135.347,142.158a8.176,8.176,0,0,1-14.722,0l-5.4,2.615a14.176,14.176,0,0,0,25.522,0Z" fill="#44294f"/>
      </g>
    </g>
  </g>
</svg>
