<svg xmlns="http://www.w3.org/2000/svg" width="97.568" height="101.659" viewBox="0 0 97.568 101.659">
  <g id="POOP_SAMPLE" data-name="POOP SAMPLE" transform="translate(-54.582 -51.504)">
    <g id="Grupo_2714" data-name="Grupo 2714" transform="translate(63.333 70.699)">
      <g id="Grupo_2713" data-name="Grupo 2713" transform="translate(0 0)">
        <path id="Trazado_1087" data-name="Trazado 1087" d="M67.752,80.391v74.327a6.143,6.143,0,0,0,6.143,6.143h68.526a6.143,6.143,0,0,0,6.143-6.143V80.391Z" transform="translate(-67.752 -80.391)" fill="#e8e6f4"/>
      </g>
    </g>
    <g id="Grupo_2716" data-name="Grupo 2716" transform="translate(67.634 70.699)">
      <g id="Grupo_2715" data-name="Grupo 2715" transform="translate(0 0)">
        <path id="Trazado_1088" data-name="Trazado 1088" d="M74.224,80.391v70.027a6.143,6.143,0,0,0,6.143,6.143h68.526a6.121,6.121,0,0,0,1.62-.223,6.121,6.121,0,0,0,.223-1.62V80.391Z" transform="translate(-74.224 -80.391)" fill="#94d3cc"/>
      </g>
    </g>
    <g id="Grupo_2718" data-name="Grupo 2718" transform="translate(61.34 68.663)">
      <g id="Grupo_2717" data-name="Grupo 2717" transform="translate(0 0)">
        <path id="Trazado_1089" data-name="Trazado 1089" d="M64.752,77.327V153.69a8.146,8.146,0,0,0,8.136,8.136h68.526a8.146,8.146,0,0,0,8.136-8.136V77.327Zm80.812,76.363a4.155,4.155,0,0,1-4.15,4.15H72.888a4.155,4.155,0,0,1-4.15-4.15V81.314h76.826Z" transform="translate(-64.752 -77.327)" fill="#44294f"/>
      </g>
    </g>
    <g id="Grupo_2720" data-name="Grupo 2720" transform="translate(73.983 131.043)">
      <g id="Grupo_2719" data-name="Grupo 2719">
        <path id="Trazado_1090" data-name="Trazado 1090" d="M133.1,171.207H93.843a9.948,9.948,0,0,0-4.632,1.13,10.062,10.062,0,0,0,4.632,19H133.1a10.052,10.052,0,0,0,8.932-5.431,9.948,9.948,0,0,0,1.13-4.632A10.06,10.06,0,0,0,133.1,171.207Z" transform="translate(-83.78 -171.207)" fill="#e8e6f4"/>
      </g>
    </g>
    <g id="Grupo_2722" data-name="Grupo 2722" transform="translate(79.918 81.067)">
      <g id="Grupo_2721" data-name="Grupo 2721">
        <path id="Trazado_1091" data-name="Trazado 1091" d="M137.274,128.74a10.063,10.063,0,0,0-7.12-2.949h-7.949a9.433,9.433,0,0,0,7.74-4.3,9.286,9.286,0,0,0,.553-.971,9.43,9.43,0,0,0-2.2-11.23,16.178,16.178,0,0,1-5.308-10.658,14.356,14.356,0,0,1-.08-1.542,1.1,1.1,0,0,0-1.094-1.094h-.393a1.082,1.082,0,0,0-1.081,1.081v.043a11.154,11.154,0,0,1-1,4.626c-1.3,2.807-3.993,5.166-8.742,5.166a8.772,8.772,0,0,0-3.839.884,9.515,9.515,0,0,0-5.3,8.551,9.357,9.357,0,0,0,2.009,5.811,7.972,7.972,0,0,0,.7.8,9.4,9.4,0,0,0,6.555,2.826h-7.949a10.065,10.065,0,0,0-7.12,17.183c.068.068.135.129.2.191a10.009,10.009,0,0,0,6.917,2.758h27.374a10.057,10.057,0,0,0,8.22-4.251,10.434,10.434,0,0,0,.719-1.179,10.062,10.062,0,0,0-1.819-11.751Z" transform="translate(-92.712 -95.995)" fill="#e8e6f4"/>
      </g>
    </g>
    <g id="Grupo_2724" data-name="Grupo 2724" transform="translate(83.069 126.743)">
      <g id="Grupo_2723" data-name="Grupo 2723">
        <path id="Trazado_1092" data-name="Trazado 1092" d="M102.73,164.735a10.028,10.028,0,0,0-5.277,1.493,10.009,10.009,0,0,0,6.917,2.758h27.374a10.057,10.057,0,0,0,8.219-4.251Z" transform="translate(-97.453 -164.735)" fill="#fcc800"/>
      </g>
    </g>
    <g id="Grupo_2726" data-name="Grupo 2726" transform="translate(78.284 131.043)">
      <g id="Grupo_2725" data-name="Grupo 2725">
        <path id="Trazado_1093" data-name="Trazado 1093" d="M135.269,171.207H96.014a9.948,9.948,0,0,0-4.632,1.13,9.948,9.948,0,0,0-1.13,4.632,10.06,10.06,0,0,0,10.063,10.063H139.57a9.948,9.948,0,0,0,4.632-1.13,9.948,9.948,0,0,0,1.13-4.632A10.06,10.06,0,0,0,135.269,171.207Z" transform="translate(-90.252 -171.207)" fill="#fcc800"/>
      </g>
    </g>
    <g id="Grupo_2728" data-name="Grupo 2728" transform="translate(84.219 83.703)">
      <g id="Grupo_2727" data-name="Grupo 2727">
        <path id="Trazado_1094" data-name="Trazado 1094" d="M139.446,130.071a10.063,10.063,0,0,0-7.12-2.949h-7.949a9.433,9.433,0,0,0,7.74-4.3h-3.44a9.376,9.376,0,0,0,3.993-.971,9.43,9.43,0,0,0-2.2-11.23,16.178,16.178,0,0,1-5.308-10.658,8.321,8.321,0,0,1-3.649,3.114c-1.3,2.807-3.993,5.166-8.742,5.166a8.772,8.772,0,0,0-3.839.884,9.538,9.538,0,0,0-1,4.251,9.451,9.451,0,0,0,9.264,9.442h-7.949a10.031,10.031,0,0,0-3.606.67,7.969,7.969,0,0,0,.7.8,9.4,9.4,0,0,0,6.555,2.826h-7.949a9.994,9.994,0,0,0-4.638,1.136,10.065,10.065,0,0,0,8.938,14.695h27.374a9.99,9.99,0,0,0,4.638-1.13,10.063,10.063,0,0,0-1.819-11.751Z" transform="translate(-99.184 -99.962)" fill="#fcc800"/>
      </g>
    </g>
    <g id="Grupo_2730" data-name="Grupo 2730" transform="translate(71.988 129.048)">
      <g id="Grupo_2729" data-name="Grupo 2729" transform="translate(0 0)">
        <path id="Trazado_1095" data-name="Trazado 1095" d="M132.091,168.2H92.835a12.058,12.058,0,1,0,0,24.115h39.256a12.058,12.058,0,1,0,0-24.115Zm0,20.128H92.835a8.071,8.071,0,1,1,0-16.141h39.256a8.071,8.071,0,0,1,0,16.141Z" transform="translate(-80.777 -168.204)" fill="#44294f"/>
      </g>
    </g>
    <g id="Grupo_2732" data-name="Grupo 2732" transform="translate(77.926 108.871)">
      <g id="Grupo_2731" data-name="Grupo 2731">
        <path id="Trazado_1096" data-name="Trazado 1096" d="M129.15,137.839H101.772a12.058,12.058,0,1,0,0,24.115h27.38a12.058,12.058,0,1,0,0-24.115Zm0,20.128H101.772a8.071,8.071,0,1,1,0-16.141h27.38a8.071,8.071,0,1,1,0,16.141Z" transform="translate(-89.714 -137.839)" fill="#44294f"/>
      </g>
    </g>
    <g id="Grupo_2734" data-name="Grupo 2734" transform="translate(86.677 79.076)">
      <g id="Grupo_2733" data-name="Grupo 2733">
        <path id="Trazado_1097" data-name="Trazado 1097" d="M133.038,106.8a14.307,14.307,0,0,1-4.722-10.711A3.09,3.09,0,0,0,125.229,93h-.389a3.086,3.086,0,0,0-3.075,3.114c0,1.3-.373,7.8-7.751,7.8a11.3,11.3,0,0,0-11.131,11.43,11.458,11.458,0,0,0,11.446,11.445h11.1a11.444,11.444,0,0,0,7.608-19.995ZM125.431,122.8h-11.1a7.467,7.467,0,0,1-7.459-7.459,7.306,7.306,0,0,1,7.144-7.442c5.856,0,9.4-3.222,10.9-7.176a18.089,18.089,0,0,0,5.477,9.048,7.457,7.457,0,0,1-4.957,13.029Z" transform="translate(-102.883 -92.999)" fill="#44294f"/>
      </g>
    </g>
    <g id="Grupo_2736" data-name="Grupo 2736" transform="translate(73.981 139.112)">
      <g id="Grupo_2735" data-name="Grupo 2735" transform="translate(0)">
        <rect id="Rectángulo_276" data-name="Rectángulo 276" width="29.693" height="3.987" fill="#44294f"/>
      </g>
    </g>
    <g id="Grupo_2738" data-name="Grupo 2738" transform="translate(110.38 139.112)">
      <g id="Grupo_2737" data-name="Grupo 2737">
        <rect id="Rectángulo_277" data-name="Rectángulo 277" width="13.413" height="3.987" fill="#44294f"/>
      </g>
    </g>
    <g id="Grupo_2740" data-name="Grupo 2740" transform="translate(79.92 118.935)">
      <g id="Grupo_2739" data-name="Grupo 2739">
        <rect id="Rectángulo_278" data-name="Rectángulo 278" width="30.511" height="3.987" fill="#44294f"/>
      </g>
    </g>
    <g id="Grupo_2742" data-name="Grupo 2742" transform="translate(117.034 118.926)">
      <g id="Grupo_2741" data-name="Grupo 2741">
        <rect id="Rectángulo_279" data-name="Rectángulo 279" width="5.683" height="3.987" fill="#44294f"/>
      </g>
    </g>
    <g id="Grupo_2744" data-name="Grupo 2744" transform="translate(87.804 98.602)">
      <g id="Grupo_2743" data-name="Grupo 2743">
        <rect id="Rectángulo_280" data-name="Rectángulo 280" width="15.666" height="3.987" fill="#44294f"/>
      </g>
    </g>
    <g id="Grupo_2746" data-name="Grupo 2746" transform="translate(68.157 70.626)">
      <g id="Grupo_2745" data-name="Grupo 2745" transform="translate(0 0)">
        <rect id="Rectángulo_281" data-name="Rectángulo 281" width="3.987" height="46.996" fill="#44294f"/>
      </g>
    </g>
    <g id="Grupo_2748" data-name="Grupo 2748" transform="translate(68.157 124.072)">
      <g id="Grupo_2747" data-name="Grupo 2747" transform="translate(0 0)">
        <rect id="Rectángulo_282" data-name="Rectángulo 282" width="3.987" height="6.969" fill="#44294f"/>
      </g>
    </g>
    <g id="Grupo_2750" data-name="Grupo 2750" transform="translate(135.852 82.081)">
      <g id="Grupo_2749" data-name="Grupo 2749">
        <rect id="Rectángulo_283" data-name="Rectángulo 283" width="9.186" height="3.987" fill="#44294f"/>
      </g>
    </g>
    <g id="Grupo_2752" data-name="Grupo 2752" transform="translate(135.852 95.289)">
      <g id="Grupo_2751" data-name="Grupo 2751">
        <rect id="Rectángulo_284" data-name="Rectángulo 284" width="9.186" height="3.987" fill="#44294f"/>
      </g>
    </g>
    <g id="Grupo_2754" data-name="Grupo 2754" transform="translate(135.852 108.497)">
      <g id="Grupo_2753" data-name="Grupo 2753">
        <rect id="Rectángulo_285" data-name="Rectángulo 285" width="9.186" height="3.987" fill="#44294f"/>
      </g>
    </g>
    <g id="Grupo_2756" data-name="Grupo 2756" transform="translate(135.852 121.705)">
      <g id="Grupo_2755" data-name="Grupo 2755">
        <rect id="Rectángulo_286" data-name="Rectángulo 286" width="9.186" height="3.987" fill="#44294f"/>
      </g>
    </g>
    <g id="Grupo_2758" data-name="Grupo 2758" transform="translate(135.852 134.913)">
      <g id="Grupo_2757" data-name="Grupo 2757">
        <rect id="Rectángulo_287" data-name="Rectángulo 287" width="9.186" height="3.987" fill="#44294f"/>
      </g>
    </g>
    <g id="Grupo_2760" data-name="Grupo 2760" transform="translate(56.575 53.497)">
      <g id="Grupo_2759" data-name="Grupo 2759">
        <rect id="Rectángulo_288" data-name="Rectángulo 288" width="93.582" height="16.996" fill="#8d386d"/>
      </g>
    </g>
    <g id="Grupo_2762" data-name="Grupo 2762" transform="translate(54.582 51.504)">
      <g id="Grupo_2761" data-name="Grupo 2761">
        <path id="Trazado_1098" data-name="Trazado 1098" d="M54.582,51.5V72.487H152.15V51.5Zm93.582,17H58.569V55.491h89.595Z" transform="translate(-54.582 -51.504)" fill="#44294f"/>
      </g>
    </g>
    <g id="Grupo_2764" data-name="Grupo 2764" transform="translate(68.2 53.959)">
      <g id="Grupo_2763" data-name="Grupo 2763" transform="translate(0)">
        <rect id="Rectángulo_289" data-name="Rectángulo 289" width="3.987" height="16.74" fill="#44294f"/>
      </g>
    </g>
    <g id="Grupo_2766" data-name="Grupo 2766" transform="translate(81.407 53.959)">
      <g id="Grupo_2765" data-name="Grupo 2765">
        <rect id="Rectángulo_290" data-name="Rectángulo 290" width="3.987" height="16.74" fill="#44294f"/>
      </g>
    </g>
    <g id="Grupo_2768" data-name="Grupo 2768" transform="translate(94.999 53.959)">
      <g id="Grupo_2767" data-name="Grupo 2767">
        <rect id="Rectángulo_291" data-name="Rectángulo 291" width="3.987" height="16.74" fill="#44294f"/>
      </g>
    </g>
    <g id="Grupo_2770" data-name="Grupo 2770" transform="translate(108.361 53.959)">
      <g id="Grupo_2769" data-name="Grupo 2769">
        <rect id="Rectángulo_292" data-name="Rectángulo 292" width="3.987" height="16.74" fill="#44294f"/>
      </g>
    </g>
    <g id="Grupo_2772" data-name="Grupo 2772" transform="translate(121.722 53.959)">
      <g id="Grupo_2771" data-name="Grupo 2771" transform="translate(0)">
        <rect id="Rectángulo_293" data-name="Rectángulo 293" width="3.987" height="16.74" fill="#44294f"/>
      </g>
    </g>
    <g id="Grupo_2774" data-name="Grupo 2774" transform="translate(135.238 53.959)">
      <g id="Grupo_2773" data-name="Grupo 2773">
        <rect id="Rectángulo_294" data-name="Rectángulo 294" width="3.987" height="16.74" fill="#44294f"/>
      </g>
    </g>
  </g>
</svg>
