<svg id="SEARCH_FOR_SYMPTOMS" data-name="SEARCH FOR SYMPTOMS" xmlns="http://www.w3.org/2000/svg" width="129.405" height="143.062" viewBox="0 0 129.405 143.062">
  <g id="Grupo_3048" data-name="Grupo 3048" transform="translate(79.52 49.144)">
    <g id="Grupo_3047" data-name="Grupo 3047">
      <path id="Trazado_1188" data-name="Trazado 1188" d="M166.963,98.074a1.811,1.811,0,0,0-2.446-.759l-9.783,5.147a1.811,1.811,0,0,0-.438,2.884l3.048,3.048-7.847,3.64a1.812,1.812,0,0,0,1.525,3.287l10.2-4.731a1.813,1.813,0,0,0,.518-2.925l-3.142-3.141,7.607-4A1.812,1.812,0,0,0,166.963,98.074Z" transform="translate(-148.447 -97.106)" fill="#eb6b69"/>
    </g>
  </g>
  <g id="Grupo_3050" data-name="Grupo 3050" transform="translate(104.665 93.053)">
    <g id="Grupo_3049" data-name="Grupo 3049">
      <path id="Trazado_1189" data-name="Trazado 1189" d="M206.611,161.058l-10.557-3.278a1.813,1.813,0,0,0-2.349,1.73v4.31l-8.123-2.975a1.812,1.812,0,1,0-1.246,3.4l10.558,3.866a1.812,1.812,0,0,0,2.435-1.7v-4.444l8.209,2.549a1.812,1.812,0,0,0,1.075-3.461Z" transform="translate(-183.146 -157.699)" fill="#eb6b69"/>
    </g>
  </g>
  <g id="Grupo_3052" data-name="Grupo 3052" transform="translate(2.177 65.517)">
    <g id="Grupo_3051" data-name="Grupo 3051">
      <path id="Trazado_1190" data-name="Trazado 1190" d="M97.172,119.7H70.715a29.008,29.008,0,0,0-29,29v34.345h84.456V148.7A29,29,0,0,0,97.172,119.7Z" transform="translate(-41.716 -119.701)" fill="#e8e6f4"/>
    </g>
  </g>
  <g id="Grupo_3054" data-name="Grupo 3054" transform="translate(12.733 2.173)">
    <g id="Grupo_3053" data-name="Grupo 3053">
      <path id="Trazado_1191" data-name="Trazado 1191" d="M87.95,32.288a31.663,31.663,0,1,0,31.677,31.677A31.475,31.475,0,0,0,87.95,32.288Z" transform="translate(-56.283 -32.288)" fill="#e8e6f4"/>
    </g>
  </g>
  <g id="Grupo_3056" data-name="Grupo 3056" transform="translate(9.214 65.517)">
    <g id="Grupo_3055" data-name="Grupo 3055">
      <path id="Trazado_1192" data-name="Trazado 1192" d="M99.846,119.7H73.389a28.8,28.8,0,0,0-16.674,5.278,28.812,28.812,0,0,0-5.288,16.684v34.345h77.419V148.7A29,29,0,0,0,99.846,119.7Z" transform="translate(-51.427 -119.701)" fill="#ffddbe"/>
    </g>
  </g>
  <g id="Grupo_3058" data-name="Grupo 3058" transform="translate(19.77 2.173)">
    <g id="Grupo_3057" data-name="Grupo 3057">
      <path id="Trazado_1193" data-name="Trazado 1193" d="M90.624,32.288a31.475,31.475,0,0,0-18.589,6.041A31.663,31.663,0,0,0,116.26,82.554,31.663,31.663,0,0,0,90.624,32.288Z" transform="translate(-65.994 -32.288)" fill="#ffddbe"/>
    </g>
  </g>
  <g id="Grupo_3060" data-name="Grupo 3060" transform="translate(14.61 2.174)">
    <g id="Grupo_3059" data-name="Grupo 3059">
      <path id="Trazado_1194" data-name="Trazado 1194" d="M88.668,32.289A31.683,31.683,0,0,0,58.873,53.2l.355.5A27.146,27.146,0,0,0,80.749,42.345a31.512,31.512,0,0,0,24.285,11.361h13.6A31.678,31.678,0,0,0,88.668,32.289Z" transform="translate(-58.873 -32.289)" fill="#e8e6f4"/>
    </g>
  </g>
  <g id="Grupo_3062" data-name="Grupo 3062" transform="translate(19.441 2.173)">
    <g id="Grupo_3061" data-name="Grupo 3061">
      <path id="Trazado_1195" data-name="Trazado 1195" d="M90.5,32.288A31.466,31.466,0,0,0,70.654,39.3a31.563,31.563,0,0,0-5.114,9.077l.358.5a26.01,26.01,0,0,0,16.24-6.041c.174-.136.338-.28.5-.425a27.979,27.979,0,0,0,4.649-5.046l-.02-.038a31.57,31.57,0,0,0,24.437,11.552h6.631A31.627,31.627,0,0,0,90.5,32.288Z" transform="translate(-65.54 -32.288)" fill="#8479b9"/>
    </g>
  </g>
  <g id="Grupo_3064" data-name="Grupo 3064" transform="translate(74.769 102.65)">
    <g id="Grupo_3063" data-name="Grupo 3063" transform="translate(0 0)">
      <rect id="Rect치ngulo_334" data-name="Rect치ngulo 334" width="10.574" height="42.23" transform="translate(0 7.477) rotate(-45)" fill="#8479b9"/>
    </g>
  </g>
  <g id="Grupo_3066" data-name="Grupo 3066" transform="translate(44.246 70.873)">
    <g id="Grupo_3065" data-name="Grupo 3065">
      <path id="Trazado_1196" data-name="Trazado 1196" d="M126.246,127.091a26.464,26.464,0,1,0,26.467,26.467A26.28,26.28,0,0,0,126.246,127.091Z" transform="translate(-99.77 -127.091)" fill="#e8e6f4"/>
    </g>
  </g>
  <g id="Grupo_3068" data-name="Grupo 3068" transform="translate(51.012 70.873)">
    <g id="Grupo_3067" data-name="Grupo 3067">
      <path id="Trazado_1197" data-name="Trazado 1197" d="M128.817,127.091a26.28,26.28,0,0,0-15.021,4.678,26.461,26.461,0,0,0,36.81,36.81,26.464,26.464,0,0,0-21.788-41.489Z" transform="translate(-109.107 -127.091)" fill="#94d3cc"/>
    </g>
  </g>
  <g id="Grupo_3070" data-name="Grupo 3070" transform="translate(62.867 89.491)">
    <g id="Grupo_3069" data-name="Grupo 3069">
      <circle id="Elipse_112" data-name="Elipse 112" cx="7.853" cy="7.853" r="7.853" fill="#eb6b69"/>
    </g>
  </g>
  <g id="Grupo_3072" data-name="Grupo 3072" transform="translate(10.813 73.918)">
    <g id="Grupo_3071" data-name="Grupo 3071">
      <path id="Trazado_1198" data-name="Trazado 1198" d="M63.285,131.293a21.5,21.5,0,0,0-9.651,8.554l3.723,2.246a17.176,17.176,0,0,1,7.707-6.833Z" transform="translate(-53.634 -131.293)" fill="#44294f"/>
    </g>
  </g>
  <g id="Grupo_3074" data-name="Grupo 3074" transform="translate(7.734 93.552)">
    <g id="Grupo_3073" data-name="Grupo 3073">
      <rect id="Rect치ngulo_335" data-name="Rect치ngulo 335" width="4.348" height="24.679" fill="#44294f"/>
    </g>
  </g>
  <g id="Grupo_3076" data-name="Grupo 3076" transform="translate(30.978 30.977)">
    <g id="Grupo_3075" data-name="Grupo 3075">
      <circle id="Elipse_113" data-name="Elipse 113" cx="2.87" cy="2.87" r="2.87" fill="#44294f"/>
    </g>
  </g>
  <g id="Grupo_3078" data-name="Grupo 3078" transform="translate(52.093 30.977)">
    <g id="Grupo_3077" data-name="Grupo 3077">
      <circle id="Elipse_114" data-name="Elipse 114" cx="2.87" cy="2.87" r="2.87" fill="#44294f"/>
    </g>
  </g>
  <g id="Grupo_3080" data-name="Grupo 3080" transform="translate(35.183 42.955)">
    <g id="Grupo_3079" data-name="Grupo 3079">
      <path id="Trazado_1199" data-name="Trazado 1199" d="M96.485,88.565a10.689,10.689,0,0,0-9.222,5.319l2.509,1.453a7.754,7.754,0,0,1,13.426,0l2.509-1.453A10.69,10.69,0,0,0,96.485,88.565Z" transform="translate(-87.263 -88.565)" fill="#44294f"/>
    </g>
  </g>
  <g id="Grupo_3082" data-name="Grupo 3082" transform="translate(0 0)">
    <g id="Grupo_3081" data-name="Grupo 3081">
      <path id="Trazado_1200" data-name="Trazado 1200" d="M133.787,141.692a28.62,28.62,0,0,0-19.379-43.263,30.976,30.976,0,0,0-14.992-5.641,33.847,33.847,0,1,0-32.6,0,31.216,31.216,0,0,0-28.1,31.021v36.52H127.52v-3.8l15.823,15.823L153.895,161.8ZM83.117,33.637a29.531,29.531,0,0,1,26.743,17.07H99.482A29.45,29.45,0,0,1,73.533,35.244,29.358,29.358,0,0,1,83.117,33.637ZM69.525,36.968a33.917,33.917,0,0,0,2.881,4.559,23.8,23.8,0,0,1-15.957,9.014A29.683,29.683,0,0,1,69.525,36.968ZM53.618,63.135a29.412,29.412,0,0,1,1.144-8.114A28.139,28.139,0,0,0,75.283,44.888a33.8,33.8,0,0,0,24.2,10.166h12a29.5,29.5,0,1,1-57.862,8.081Zm48.44,92.844H64.176V123.807H59.828v32.172H43.061V123.807A26.856,26.856,0,0,1,69.887,96.981H96.347a26.7,26.7,0,0,1,8.465,1.383,28.643,28.643,0,0,0-2.755,55.946Zm21.115,0H106.406v-.862a28.8,28.8,0,0,0,3.027.161,28.462,28.462,0,0,0,13.466-3.372l.274.274Zm-13.74-5.049a24.3,24.3,0,1,1,24.3-24.3A24.325,24.325,0,0,1,109.433,150.93Zm18.088-.551v-1.554a28.893,28.893,0,0,0,3.665-3.586l4.6,4.6-4.4,4.4Zm6.935,6.935,4.4-4.4,8.888,8.888-4.4,4.4Z" transform="translate(-38.712 -29.289)" fill="#44294f"/>
    </g>
  </g>
  <g id="Grupo_3084" data-name="Grupo 3084" transform="translate(52.114 78.737)">
    <g id="Grupo_3083" data-name="Grupo 3083">
      <path id="Trazado_1201" data-name="Trazado 1201" d="M129.234,137.944A18.606,18.606,0,1,0,147.84,156.55,18.628,18.628,0,0,0,129.234,137.944Zm0,32.865a14.258,14.258,0,1,1,14.258-14.258A14.275,14.275,0,0,1,129.234,170.809Z" transform="translate(-110.628 -137.944)" fill="#44294f"/>
    </g>
  </g>
</svg>
