<svg xmlns="http://www.w3.org/2000/svg" width="222" height="267.3" viewBox="0 0 222 267.3">
  <g id="SHIFT_ROTATION" data-name="SHIFT ROTATION" transform="translate(-43.64 -26.429)">
    <g id="Grupo_3086" data-name="Grupo 3086" transform="translate(47.59 160.027)">
      <g id="Grupo_3085" data-name="Grupo 3085">
        <path id="Trazado_1202" data-name="Trazado 1202" d="M157.066,161.672a51.535,51.535,0,0,0-3.447-7.25,52.633,52.633,0,0,0-36.172-25.593,51.338,51.338,0,0,0-9.5-.868h-9.7c-.763,0-1.513.013-2.263.053-.605.026-1.2.053-1.79.105-.395.026-.8.066-1.2.105-.553.053-1.092.118-1.632.184-.579.079-1.145.158-1.7.25-.316.053-.618.105-.921.171-.579.092-1.171.211-1.737.329-.645.145-1.276.3-1.908.461-.013,0-.026,0-.026.013-.684.171-1.368.368-2.04.566a.1.1,0,0,0-.066.026c-.684.2-1.355.421-2.026.658s-1.329.474-1.987.737a.046.046,0,0,0-.026.013c-.579.224-1.171.474-1.737.724-.8.342-1.579.7-2.355,1.092-.553.276-1.092.553-1.632.842a1.434,1.434,0,0,0-.145.079c-.592.329-1.184.671-1.763,1.013-.605.368-1.211.737-1.8,1.132s-1.145.763-1.711,1.158l-.026.026q-.868.612-1.7,1.263c-.395.3-.776.605-1.158.921-.7.566-1.382,1.145-2.04,1.763-.263.237-.526.474-.776.724a4.913,4.913,0,0,0-.592.579c-.3.276-.605.579-.895.895a41.329,41.329,0,0,0-2.974,3.3c-.316.368-.618.75-.921,1.145-.632.79-1.224,1.605-1.8,2.447-.263.382-.513.763-.763,1.145-.276.408-.553.829-.8,1.263-.25.408-.5.829-.75,1.25a52.2,52.2,0,0,0-2.961,6.026c-.132.289-.25.579-.355.882a49.491,49.491,0,0,0-1.658,4.882c-.118.421-.237.842-.342,1.263-.066.276-.145.553-.211.842-.118.5-.237.987-.329,1.487-.039.145-.066.276-.092.421v.026a115.09,115.09,0,0,0,21.224,34.343c2.053,2.329,4.224,4.566,6.487,6.711,1.04,1,2.105,1.974,3.184,2.908h83.042V180.594A52.207,52.207,0,0,0,157.066,161.672Z" transform="translate(-46.642 -127.961)" fill="#e8e6f4"/>
      </g>
    </g>
    <g id="Grupo_3088" data-name="Grupo 3088" transform="translate(56.143 160.027)">
      <g id="Grupo_3087" data-name="Grupo 3087">
        <path id="Trazado_1203" data-name="Trazado 1203" d="M155.013,161.672a51.535,51.535,0,0,0-3.447-7.25,52.633,52.633,0,0,0-36.172-25.593,51.338,51.338,0,0,0-9.5-.868H96.2c-.763,0-1.513.013-2.263.053-.605.026-1.2.053-1.79.105-.395.026-.8.066-1.2.105-.553.053-1.092.118-1.632.184-.579.079-1.145.158-1.7.25-.316.053-.618.105-.921.171-.579.092-1.171.211-1.737.329-.645.145-1.276.3-1.908.461-.013,0-.026,0-.026.013-.684.171-1.368.368-2.04.566a.1.1,0,0,0-.066.026c-.684.2-1.355.421-2.026.658s-1.329.474-1.987.737a.046.046,0,0,0-.026.013c-.579.224-1.171.474-1.737.724-.8.342-1.579.7-2.355,1.092-.553.276-1.092.553-1.632.842a1.434,1.434,0,0,0-.145.079c-.592.329-1.184.671-1.763,1.013-.605.368-1.211.737-1.8,1.132s-1.145.763-1.711,1.158l-.026.026q-.868.612-1.7,1.263a52.338,52.338,0,0,0-10.869,32.014V187.45a114.484,114.484,0,0,0,12.671,17.119h92.713V180.594A52.207,52.207,0,0,0,155.013,161.672Z" transform="translate(-53.142 -127.961)" fill="#94d3cc"/>
      </g>
    </g>
    <g id="Grupo_3090" data-name="Grupo 3090" transform="translate(60.935 73.801)">
      <g id="Grupo_3089" data-name="Grupo 3089" transform="translate(0 0)">
        <path id="Trazado_1204" data-name="Trazado 1204" d="M99.89,62.431a43.12,43.12,0,1,0,43.12,43.12A42.8,42.8,0,0,0,99.89,62.431Z" transform="translate(-56.784 -62.431)" fill="#e8e6f4"/>
      </g>
    </g>
    <g id="Grupo_3092" data-name="Grupo 3092" transform="translate(67.514 73.801)">
      <g id="Grupo_3091" data-name="Grupo 3091" transform="translate(0 0)">
        <path id="Trazado_1205" data-name="Trazado 1205" d="M98.311,62.431a42.8,42.8,0,0,0-27,9.527,43.106,43.106,0,0,0,60.62,60.594,43.12,43.12,0,0,0-33.619-70.12Z" transform="translate(-61.784 -62.431)" fill="#ffddbe"/>
      </g>
    </g>
    <g id="Grupo_3094" data-name="Grupo 3094" transform="translate(63.488 73.801)">
      <g id="Grupo_3093" data-name="Grupo 3093" transform="translate(0 0)">
        <path id="Trazado_1206" data-name="Trazado 1206" d="M137.174,85.011a43.128,43.128,0,0,0-78.45,5.895l.487.684A35.179,35.179,0,0,0,87.8,76.945a.923.923,0,0,0,.105-.132l-2.855-5.421a43.291,43.291,0,0,0,36.514,20.2h18.5A42.633,42.633,0,0,0,137.174,85.011Z" transform="translate(-58.724 -62.431)" fill="#e8e6f4"/>
      </g>
    </g>
    <g id="Grupo_3096" data-name="Grupo 3096" transform="translate(70.067 73.801)">
      <g id="Grupo_3095" data-name="Grupo 3095" transform="translate(0 0)">
        <path id="Trazado_1207" data-name="Trazado 1207" d="M97.7,62.431a42.831,42.831,0,0,0-27.014,9.54,42.96,42.96,0,0,0-6.961,12.356l.487.684a35.577,35.577,0,0,0,22.014-8.066l.829-.671A38.582,38.582,0,0,0,93.4,69.4a42.99,42.99,0,0,0,33.172,15.606h9.027A43.054,43.054,0,0,0,97.7,62.431Z" transform="translate(-63.724 -62.431)" fill="#8479b9"/>
      </g>
    </g>
    <g id="Grupo_3098" data-name="Grupo 3098" transform="translate(89.677 160.029)">
      <g id="Grupo_3097" data-name="Grupo 3097" transform="translate(0)">
        <path id="Trazado_1208" data-name="Trazado 1208" d="M78.627,127.962a14.371,14.371,0,1,0,28.743,0H78.627Z" transform="translate(-78.627 -127.962)" fill="#ffddbe"/>
      </g>
    </g>
    <g id="Grupo_3100" data-name="Grupo 3100" transform="translate(152.031 102.276)">
      <g id="Grupo_3099" data-name="Grupo 3099">
        <path id="Trazado_1209" data-name="Trazado 1209" d="M231.552,122.2,219.526,84.071H138.51L126.5,122.2a15.784,15.784,0,0,0,15.316,19.619h74.41A15.791,15.791,0,0,0,231.552,122.2Z" transform="translate(-126.015 -84.071)" fill="#e8e6f4"/>
      </g>
    </g>
    <g id="Grupo_3102" data-name="Grupo 3102" transform="translate(158.61 102.276)">
      <g id="Grupo_3101" data-name="Grupo 3101">
        <path id="Trazado_1210" data-name="Trazado 1210" d="M229.973,122.2,217.947,84.071H141.431L131.5,115.625a15.784,15.784,0,0,0,15.316,19.619h74.41a15.674,15.674,0,0,0,7.382-1.816A15.656,15.656,0,0,0,229.973,122.2Z" transform="translate(-131.015 -84.071)" fill="#fcc800"/>
      </g>
    </g>
    <g id="Grupo_3104" data-name="Grupo 3104" transform="translate(147.606 160.027)">
      <g id="Grupo_3103" data-name="Grupo 3103">
        <path id="Trazado_1211" data-name="Trazado 1211" d="M208.931,133.724a52.8,52.8,0,0,0-23.948-5.763h-9.7c-.75,0-1.5.013-2.25.053-.605.026-1.211.053-1.8.105h-.026c-.355.026-.711.053-1.066.092-.526.053-1.039.105-1.566.171q-1.046.138-2.053.316a1.686,1.686,0,0,0-.355.066h-.013a.776.776,0,0,0-.184.026c-.579.092-1.145.211-1.7.329-.711.145-1.421.316-2.118.5h-.026c-.7.184-1.382.368-2.053.579s-1.3.408-1.947.618l-.316.118c-.526.184-1.039.368-1.553.579a3.223,3.223,0,0,0-.408.158c-.526.2-1.039.421-1.553.645-.618.263-1.224.539-1.829.842-.368.171-.724.342-1.079.54-1.158.579-2.29,1.211-3.395,1.882-.474.289-.934.579-1.395.882q-.888.572-1.737,1.184c-.355.25-.711.513-1.066.776-.224.158-.434.316-.645.487-.461.342-.908.711-1.342,1.079-.974.79-1.921,1.632-2.829,2.513-.316.289-.605.579-.908.882a53.011,53.011,0,0,0-4.2,4.724c-.25.329-.513.671-.763,1l-.75,1.026c-.224.316-.434.632-.658.947-.737,1.079-1.434,2.2-2.092,3.342a49.91,49.91,0,0,0-2.368,4.658c-.158.342-.3.684-.447,1.039-.171.382-.329.776-.487,1.184-.263.632-.5,1.276-.724,1.934a50.712,50.712,0,0,0-1.513,5.158c-.105.447-.211.908-.3,1.368-.092.408-.171.829-.237,1.237-.039.184-.079.368-.105.553-.079.408-.145.829-.2,1.237-.132.842-.237,1.7-.316,2.553-.039.355-.066.711-.092,1.053-.039.408-.066.8-.092,1.211-.026.461-.039.934-.053,1.395-.013.539-.026,1.066-.026,1.592v33.593h83.042c1.079-.934,2.145-1.908,3.184-2.908q3.375-3.2,6.461-6.671A114.78,114.78,0,0,0,236.589,170.2,52.664,52.664,0,0,0,208.931,133.724Z" transform="translate(-122.652 -127.961)" fill="#e8e6f4"/>
      </g>
    </g>
    <g id="Grupo_3106" data-name="Grupo 3106" transform="translate(157.185 160.027)">
      <g id="Grupo_3105" data-name="Grupo 3105">
        <path id="Trazado_1212" data-name="Trazado 1212" d="M206.632,133.724a52.8,52.8,0,0,0-23.948-5.763h-9.7c-.75,0-1.5.013-2.25.053-.605.026-1.211.053-1.8.105h-.026c-.355.026-.711.053-1.066.092-.526.053-1.039.105-1.566.171q-1.046.138-2.053.316a1.686,1.686,0,0,0-.355.066h-.013a.776.776,0,0,0-.184.026c-.579.092-1.145.211-1.7.329-.711.145-1.421.316-2.118.5h-.026c-.7.184-1.382.368-2.053.579s-1.3.408-1.947.618l-.316.118c-.526.184-1.039.368-1.553.579a3.223,3.223,0,0,0-.408.158c-.526.2-1.039.421-1.553.645-.618.263-1.224.539-1.829.842-.368.171-.724.342-1.079.54-1.158.579-2.29,1.211-3.395,1.882-.474.289-.934.579-1.395.882q-.888.572-1.737,1.184c-.355.25-.711.513-1.066.776-.224.158-.434.316-.645.487a52.51,52.51,0,0,0-10.921,32.106v33.593H213.04A114.78,114.78,0,0,0,234.29,170.2,52.664,52.664,0,0,0,206.632,133.724Z" transform="translate(-129.932 -127.961)" fill="#eb6b69"/>
      </g>
    </g>
    <g id="Grupo_3108" data-name="Grupo 3108" transform="translate(161.974 73.803)">
      <g id="Grupo_3107" data-name="Grupo 3107">
        <circle id="Elipse_115" data-name="Elipse 115" cx="43.113" cy="43.113" r="43.113" fill="#ffddbe"/>
      </g>
    </g>
    <g id="Grupo_3110" data-name="Grupo 3110" transform="translate(164.526 73.801)">
      <g id="Grupo_3109" data-name="Grupo 3109" transform="translate(0 0)">
        <path id="Trazado_1213" data-name="Trazado 1213" d="M213.961,85.011a43.128,43.128,0,0,0-78.45,5.895l.487.684a35.208,35.208,0,0,0,28.7-14.777l-.013-.026-2.842-5.395a42.236,42.236,0,0,0,3.526,4.816A43,43,0,0,0,198.355,91.59h18.5A42.5,42.5,0,0,0,213.961,85.011Z" transform="translate(-135.511 -62.431)" fill="#e8e6f4"/>
      </g>
    </g>
    <g id="Grupo_3112" data-name="Grupo 3112" transform="translate(171.105 73.801)">
      <g id="Grupo_3111" data-name="Grupo 3111" transform="translate(0 0)">
        <path id="Trazado_1214" data-name="Trazado 1214" d="M174.486,62.431a42.831,42.831,0,0,0-27.014,9.54,42.959,42.959,0,0,0-6.961,12.356l.487.684A35.405,35.405,0,0,0,163.1,76.787c.237-.184.461-.382.684-.579a38.06,38.06,0,0,0,6.329-6.869l-.026-.053a42.973,42.973,0,0,0,33.264,15.724h9.027A43.054,43.054,0,0,0,174.486,62.431Z" transform="translate(-140.511 -62.431)" fill="#fcc800"/>
      </g>
    </g>
    <g id="Grupo_3114" data-name="Grupo 3114" transform="translate(190.717 160.029)">
      <g id="Grupo_3113" data-name="Grupo 3113">
        <path id="Trazado_1215" data-name="Trazado 1215" d="M155.415,127.962,169.9,156.7l14.254-28.743Z" transform="translate(-155.415 -127.962)" fill="#ffddbe"/>
      </g>
    </g>
    <g id="Grupo_3116" data-name="Grupo 3116" transform="translate(71.354 188.923)">
      <g id="Grupo_3115" data-name="Grupo 3115">
        <rect id="Rectángulo_336" data-name="Rectángulo 336" width="7.895" height="14.31" fill="#44294f"/>
      </g>
    </g>
    <g id="Grupo_3118" data-name="Grupo 3118" transform="translate(128.757 188.923)">
      <g id="Grupo_3117" data-name="Grupo 3117">
        <rect id="Rectángulo_337" data-name="Rectángulo 337" width="7.895" height="14.31" fill="#44294f"/>
      </g>
    </g>
    <g id="Grupo_3120" data-name="Grupo 3120" transform="translate(94.273 129.969)">
      <g id="Grupo_3119" data-name="Grupo 3119" transform="translate(0)">
        <path id="Trazado_1216" data-name="Trazado 1216" d="M97.113,105.117a6.028,6.028,0,0,1-10.437,0l-4.555,2.637a11.292,11.292,0,0,0,19.548,0Z" transform="translate(-82.12 -105.117)" fill="#44294f"/>
      </g>
    </g>
    <g id="Grupo_3122" data-name="Grupo 3122" transform="translate(85.77 113.009)">
      <g id="Grupo_3121" data-name="Grupo 3121" transform="translate(0)">
        <circle id="Elipse_116" data-name="Elipse 116" cx="3.907" cy="3.907" r="3.907" fill="#44294f"/>
      </g>
    </g>
    <g id="Grupo_3124" data-name="Grupo 3124" transform="translate(114.513 113.01)">
      <g id="Grupo_3123" data-name="Grupo 3123">
        <circle id="Elipse_117" data-name="Elipse 117" cx="3.905" cy="3.905" r="3.905" fill="#44294f"/>
      </g>
    </g>
    <g id="Grupo_3126" data-name="Grupo 3126" transform="translate(195.314 129.969)">
      <g id="Grupo_3125" data-name="Grupo 3125">
        <path id="Trazado_1217" data-name="Trazado 1217" d="M173.9,105.117a6.029,6.029,0,0,1-10.438,0l-4.554,2.637a11.291,11.291,0,0,0,19.547,0Z" transform="translate(-158.909 -105.117)" fill="#44294f"/>
      </g>
    </g>
    <g id="Grupo_3128" data-name="Grupo 3128" transform="translate(43.64 69.854)">
      <g id="Grupo_3127" data-name="Grupo 3127">
        <path id="Trazado_1218" data-name="Trazado 1218" d="M265.415,191.066a57.009,57.009,0,0,0-26.663-37.512h3.495a19.739,19.739,0,0,0,19.148-24.526L250.856,95.571a47.052,47.052,0,0,0-90.081-4.911l-.009,0-.128.4q-.444,1.273-.813,2.579L148.743,128.8l-.064.23a19.739,19.739,0,0,0,19.149,24.526h3.58c-.172.1-.343.195-.517.3-.512.312-1.012.626-1.474.932-.651.418-1.288.853-1.87,1.274-.382.268-.766.553-1.072.782-.272.192-.528.384-.786.589-.505.378-1,.782-1.438,1.155-1.054.87-2.078,1.782-2.979,2.645-.333.3-.639.609-1.036,1a56.92,56.92,0,0,0-4.546,5.124l-1.1,1.505a56.347,56.347,0,0,0-28.89-20.648,47.061,47.061,0,1,0-43.629-.084l-.249.25c-.416.134-.83.275-1.247.421-.479.17-.953.339-1.424.518l-.851.007-.592.564c-.384.159-.762.32-1.112.475-.939.4-1.79.795-2.574,1.192-.586.293-1.158.586-1.7.875q-.15.077-.288.158c-.6.336-1.208.686-1.845,1.062-.65.4-1.3.793-1.921,1.207s-1.2.8-1.795,1.216l-.293.216c-.549.391-1.082.791-1.574,1.179-.433.33-.851.663-1.246.99-.913.741-1.609,1.343-2.209,1.909-.263.237-.525.475-.779.722a8.76,8.76,0,0,0-.746.725c-.314.295-.629.611-.932.938a44.282,44.282,0,0,0-3.124,3.469c-.361.421-.708.857-1,1.243-.634.793-1.279,1.668-1.97,2.671-.282.409-.55.816-.786,1.176-.329.487-.657.988-.9,1.415-.259.422-.517.857-.811,1.351a56.325,56.325,0,0,0-3.158,6.421c-.157.349-.3.7-.426,1.059a54.028,54.028,0,0,0-1.779,5.261c-.122.437-.245.875-.366,1.359l-.074.289c-.05.195-.1.393-.163.665-.113.478-.224.947-.316,1.424-.049.2-.087.387-.124.589l-.062,1.474.276.7a119.05,119.05,0,0,0,21.934,35.5c2.072,2.353,4.338,4.7,6.712,6.946,1.093,1.051,2.216,2.076,3.337,3.046l1.112.963H232.118l1.113-.963c1.126-.976,2.249-2,3.315-3.026,2.344-2.221,4.6-4.549,6.687-6.9a118.4,118.4,0,0,0,21.981-35.593l.426-1.083ZM253.76,131.051a11.843,11.843,0,0,1-11.515,14.608h-11.1a47.245,47.245,0,0,0,19.076-25.851ZM205.087,67.327A39.2,39.2,0,0,1,239.9,88.587H227.364A39.091,39.091,0,0,1,193.5,69.077,39.028,39.028,0,0,1,205.087,67.327ZM186.2,72.193a47.213,47.213,0,0,0,3.066,4.87,31.428,31.428,0,0,1-18.743,11.028A39.429,39.429,0,0,1,186.2,72.193ZM167.242,96.415A39.315,39.315,0,0,0,194.5,83.087a46.969,46.969,0,0,0,32.869,13.4h15.5l.37,1.175a39.136,39.136,0,0,1-38.048,48h-.2a39.153,39.153,0,0,1-37.742-49.242Zm29.936,57.244c.336-.02.661-.043,1.021-.058.645-.034,1.286-.043,1.93-.045h9.925c.993,0,1.99.045,2.986.109l-7.865,15.858Zm1.615,20.743h-5.305a13.209,13.209,0,0,1-13.194-13.194v-3.392c.184-.082.364-.164.561-.247.442-.192.883-.386,1.334-.555l.526-.2c.45-.186.9-.345,1.447-.537l.226-.084c.586-.192,1.176-.384,1.826-.578.455-.143.917-.272,1.387-.4l.513-.13c.272-.072.563-.132.842-.2Zm22.445-19.5a47.81,47.81,0,0,1,8.7,2.979v3.326A13.209,13.209,0,0,1,216.746,174.4h-5.178Zm-53.411-9.242a11.843,11.843,0,0,1-11.516-14.608l3.6-11.413a47.237,47.237,0,0,0,19.123,26.02h-11.2ZM103.967,67.327a39.2,39.2,0,0,1,34.815,21.26H126.325A39.089,39.089,0,0,1,92.451,69.058,39.015,39.015,0,0,1,103.967,67.327ZM85.144,72.159a47.275,47.275,0,0,0,3.086,4.9A31.429,31.429,0,0,1,69.4,88.105,39.426,39.426,0,0,1,85.144,72.159ZM64.8,106.493a39.111,39.111,0,0,1,1.32-10.077A39.305,39.305,0,0,0,93.455,83.086a46.969,46.969,0,0,0,32.869,13.4H141.83a39.163,39.163,0,0,1-37.763,49.175h-.2A39.207,39.207,0,0,1,64.8,106.493Zm48.791,47.288a10.415,10.415,0,0,1-19.09,0c.3-.03.616-.061.992-.086.532-.047,1.065-.071,1.65-.095.68-.036,1.361-.047,2.054-.047h4.669l.1,0,.1,0H108.9C110.477,153.552,112.045,153.632,113.592,153.781Zm35.023,25.288c-.174.376-.336.754-.5,1.146-.187.42-.359.851-.5,1.218-.3.712-.564,1.438-.8,2.13a55.055,55.055,0,0,0-1.636,5.573c-.116.491-.23.995-.309,1.4-.1.455-.192.925-.268,1.382-.042.2-.083.408-.114.612-.088.463-.161.933-.207,1.295-.143.916-.261,1.859-.338,2.722-.042.378-.072.754-.1,1.116-.043.45-.072.884-.1,1.362-.028.5-.043,1.013-.058,1.521-.014.574-.028,1.132-.028,1.691v29.646h-6.923V206.954h-7.895v24.928H79.979c-.243-.22-.487-.454-.73-.679V206.954H71.354v16.153A110.737,110.737,0,0,1,51.7,191.5c.041-.179.084-.357.128-.538l.225-.911c.092-.364.195-.732.312-1.146a45.537,45.537,0,0,1,1.525-4.491l.064-.174c.064-.188.139-.366.22-.546l.055-.128a48.351,48.351,0,0,1,2.7-5.511c.242-.408.484-.813.779-1.3.2-.351.428-.689.684-1.068.233-.355.464-.711.713-1.07.584-.85,1.118-1.575,1.683-2.28.259-.338.518-.666.865-1.072a37.624,37.624,0,0,1,2.688-2.986l.122-.129c.208-.228.425-.446.642-.643l.309-.316a.871.871,0,0,1,.108-.112l.308-.279c.193-.193.4-.376.687-.636.5-.474,1.066-.959,1.846-1.593.345-.284.688-.558,1.086-.862q.746-.586,1.53-1.138l.358-.253.008-.009c.421-.289.846-.575,1.287-.865.549-.364,1.108-.705,1.621-1.018.549-.324,1.112-.649,1.674-.961l.1-.057-.008.005c.507-.271,1.013-.53,1.554-.8.7-.355,1.393-.674,2.158-1,.388-.171.789-.342,1.188-.5l.146-.058c.078-.03.155-.062.233-.091l.732-.283.005-.007q.58-.215,1.166-.421c.6-.211,1.2-.411,1.811-.588l.976-.283.009-.009c.2-.057.405-.109.608-.163a18.377,18.377,0,0,0,13.81,12.357v28.044H85.706v23.027H122.22V195.612H108.312v-28.2a18.371,18.371,0,0,0,13.162-12.181A48.5,48.5,0,0,1,150.01,176.19C149.526,177.126,149.052,178.088,148.615,179.069ZM114.329,203.5v7.237H93.6V203.5Zm43.251,28.382h-6.026V202.238c0-.495.012-.987.025-1.482.012-.422.024-.857.046-1.251.024-.366.047-.721.082-1.088l.012-.143c.021-.276.042-.561.082-.924.071-.771.166-1.543.3-2.408.042-.328.095-.666.158-.993l.032-.189c.013-.091.036-.183.058-.289l.037-.2c.053-.326.116-.666.211-1.091s.179-.833.271-1.226a47.663,47.663,0,0,1,1.411-4.8c.089-.262.182-.522.28-.788a48.21,48.21,0,0,1,3.022,16.874v29.646Zm87.109-17.422v-7.369h-7.895v17.129c-1.8,1.993-3.7,3.959-5.7,5.855-.637.612-1.287,1.216-1.942,1.805h-56.1V207.09h-7.58v-4.853a56.025,56.025,0,0,0-3.774-20.331,54.832,54.832,0,0,0-2.583-5.733c.255-.4.512-.8.763-1.17l2.054-2.817a49.423,49.423,0,0,1,3.953-4.44c.237-.236.464-.464.779-.751.828-.793,1.707-1.574,2.647-2.351.37-.313.75-.629,1.143-.92l.137-.105c.142-.116.286-.222.513-.384.326-.243.654-.486,1.022-.745.1-.074.218-.146.322-.22A21.1,21.1,0,0,0,193.488,182.3h7.594v13.31H186.37v23.027h36.514V195.606H208.976V182.3h7.769a21.1,21.1,0,0,0,21.032-19.966,49.086,49.086,0,0,1,19.656,29.159A110.285,110.285,0,0,1,244.689,214.462ZM214.99,203.5v7.237H194.265V203.5Z" transform="translate(-43.64 -59.431)" fill="#44294f"/>
      </g>
    </g>
    <g id="Grupo_3130" data-name="Grupo 3130" transform="translate(186.81 113.009)">
      <g id="Grupo_3129" data-name="Grupo 3129">
        <circle id="Elipse_118" data-name="Elipse 118" cx="3.907" cy="3.907" r="3.907" fill="#44294f"/>
      </g>
    </g>
    <g id="Grupo_3132" data-name="Grupo 3132" transform="translate(215.553 113.01)">
      <g id="Grupo_3131" data-name="Grupo 3131">
        <circle id="Elipse_119" data-name="Elipse 119" cx="3.905" cy="3.905" r="3.905" fill="#44294f"/>
      </g>
    </g>
    <g id="Grupo_3134" data-name="Grupo 3134" transform="translate(164.988 188.923)">
      <g id="Grupo_3133" data-name="Grupo 3133">
        <rect id="Rectángulo_338" data-name="Rectángulo 338" width="7.895" height="14.694" fill="#44294f"/>
      </g>
    </g>
    <g id="Grupo_3136" data-name="Grupo 3136" transform="translate(236.481 188.923)">
      <g id="Grupo_3135" data-name="Grupo 3135">
        <rect id="Rectángulo_339" data-name="Rectángulo 339" width="7.895" height="14.694" fill="#44294f"/>
      </g>
    </g>
    <g id="Grupo_3138" data-name="Grupo 3138" transform="translate(73.393 26.429)">
      <g id="Grupo_3137" data-name="Grupo 3137" transform="translate(0)">
        <path id="Trazado_1219" data-name="Trazado 1219" d="M147.425,26.429a132.53,132.53,0,0,0-71.942,21.02l1.241-11.188-7.848-.871L66.252,59.059l23.669,2.624.87-7.846-9.063-1.005a125.828,125.828,0,0,1,140.089,5.846l4.675-6.361A132.591,132.591,0,0,0,147.425,26.429Z" transform="translate(-66.252 -26.429)" fill="#44294f"/>
      </g>
    </g>
    <g id="Grupo_3140" data-name="Grupo 3140" transform="translate(76.219 258.608)">
      <g id="Grupo_3139" data-name="Grupo 3139" transform="translate(0)">
        <path id="Trazado_1220" data-name="Trazado 1220" d="M204.117,202.88l-.868,7.846,8.979,1a125.77,125.77,0,0,1-139.195-5.488L68.4,212.625a133.6,133.6,0,0,0,150.165,4.424L217.316,228.3l7.846.871,2.625-23.669Z" transform="translate(-68.399 -202.88)" fill="#44294f"/>
      </g>
    </g>
  </g>
</svg>
