<svg xmlns="http://www.w3.org/2000/svg" width="27.992" height="32.87" viewBox="0 0 27.992 32.87">
  <g id="surface1" transform="translate(-0.5 0)">
    <path id="Trazado_95" data-name="Trazado 95" d="M27.013,21.951a16.583,16.583,0,0,1-3.972,6.188,20.79,20.79,0,0,1-7.762,4.6,2.374,2.374,0,0,1-.754.133H14.5a2.41,2.41,0,0,1-.463-.046,2.5,2.5,0,0,1-.318-.087,20.789,20.789,0,0,1-7.771-4.6,16.552,16.552,0,0,1-3.971-6.186C.368,17.6.46,12.806.533,8.952V8.893c.015-.318.024-.653.03-1.022a3.484,3.484,0,0,1,3.28-3.413A13.519,13.519,0,0,0,13.045.58l.022-.02a2.106,2.106,0,0,1,2.859,0l.021.02a13.521,13.521,0,0,0,9.2,3.878,3.484,3.484,0,0,1,3.28,3.413c.005.372.015.705.03,1.022v.025C28.532,12.779,28.623,17.584,27.013,21.951Zm0,0" transform="translate(0 0)" fill="#41485c"/>
    <path id="Trazado_96" data-name="Trazado 96" d="M231.438,21.954a16.583,16.583,0,0,1-3.972,6.188,20.79,20.79,0,0,1-7.762,4.6,2.374,2.374,0,0,1-.754.133V0a2.109,2.109,0,0,1,1.4.559l.021.02a13.521,13.521,0,0,0,9.2,3.878,3.484,3.484,0,0,1,3.28,3.413c.005.372.015.705.03,1.022v.025C232.957,12.782,233.048,17.588,231.438,21.954Zm0,0" transform="translate(-204.425 -0.003)" fill="#1d2332"/>
    <path id="Trazado_97" data-name="Trazado 97" d="M107.279,136.59a8.2,8.2,0,0,1-8.163,8.192h-.029a8.192,8.192,0,1,1,0-16.384h.029A8.2,8.2,0,0,1,107.279,136.59Zm0,0" transform="translate(-84.591 -120.155)" fill="#fff"/>
    <path id="Trazado_98" data-name="Trazado 98" d="M227.112,136.59a8.2,8.2,0,0,1-8.163,8.192V128.4A8.2,8.2,0,0,1,227.112,136.59Zm0,0" transform="translate(-204.425 -120.155)" fill="#e1ebf0"/>
    <path id="Trazado_99" data-name="Trazado 99" d="M162.026,213.626l-3.689,3.69-.8.8a.965.965,0,0,1-1.364,0L154.46,216.4a.964.964,0,1,1,1.364-1.364l1.033,1.033,3.805-3.805a.964.964,0,0,1,1.364,1.364Zm0,0" transform="translate(-143.812 -198.37)" fill="#b4d2d7"/>
    <path id="Trazado_100" data-name="Trazado 100" d="M222.639,213.626l-3.689,3.69v-2.728l2.326-2.325a.964.964,0,0,1,1.364,1.364Zm0,0" transform="translate(-204.425 -198.37)" fill="#6fa5aa"/>
  </g>
</svg>
